<svg width="20" height="20" viewBox="0 0 20 20" fill="none" xmlns="http://www.w3.org/2000/svg">
<path d="M9.99992 0.833344C4.93375 0.833344 0.833252 4.93314 0.833252 10C0.833252 11.6078 1.25259 13.1782 2.04888 14.5632L0.8678 18.2309C0.785416 18.4866 0.853114 18.7669 1.04306 18.9569C1.23119 19.145 1.51079 19.2152 1.769 19.1321L5.43673 17.951C6.82174 18.7473 8.39209 19.1667 9.99992 19.1667C15.0661 19.1667 19.1666 15.0669 19.1666 10C19.1666 4.93384 15.0668 0.833344 9.99992 0.833344ZM9.99992 17.7344C8.54762 17.7344 7.13198 17.3292 5.906 16.5625C5.72962 16.4523 5.51058 16.4225 5.30678 16.4881L2.65914 17.3408L3.5118 14.6931C3.57643 14.4923 3.54915 14.273 3.43725 14.0939C2.67075 12.8679 2.26554 11.4523 2.26554 10C2.26554 5.73531 5.73521 2.26564 9.99992 2.26564C14.2646 2.26564 17.7343 5.73531 17.7343 10C17.7343 14.2647 14.2646 17.7344 9.99992 17.7344ZM10.8951 10C10.8951 10.4943 10.4944 10.8952 9.99992 10.8952C9.50547 10.8952 9.10473 10.4943 9.10473 10C9.10473 9.50556 9.50547 9.10483 9.99992 9.10483C10.4944 9.10483 10.8951 9.50556 10.8951 10ZM14.4758 10C14.4758 10.4943 14.0751 10.8952 13.5806 10.8952C13.0862 10.8952 12.6855 10.4943 12.6855 10C12.6855 9.50556 13.0862 9.10483 13.5806 9.10483C14.0751 9.10483 14.4758 9.50556 14.4758 10ZM7.31437 10C7.31437 10.4943 6.91364 10.8952 6.41919 10.8952C5.92488 10.8952 5.52401 10.4943 5.52401 10C5.52401 9.50556 5.92488 9.10483 6.41919 9.10483C6.91364 9.10483 7.31437 9.50556 7.31437 10Z" fill="white"/>
<path d="M11.4583 15.8333C13.8706 15.8333 15.8333 13.8707 15.8333 11.4584C15.8333 11.1132 15.5534 10.8333 15.2082 10.8333C14.8631 10.8333 14.5832 11.1132 14.5832 11.4584C14.5832 13.1815 13.1814 14.5833 11.4583 14.5833C11.1131 14.5833 10.8332 14.8631 10.8332 15.2083C10.8332 15.5535 11.1131 15.8333 11.4583 15.8333Z" fill="white"/>
</svg>
