<svg width="42" height="42" viewBox="0 0 42 42" fill="none" xmlns="http://www.w3.org/2000/svg">
<g filter="url(#filter0_d)">
<rect x="6" y="2" width="34" height="34" rx="8" fill="#EB4C60"/>
</g>
<path d="M31.2844 12.2719H20.5753C20.2809 11.3975 19.4538 10.7657 18.4813 10.7657C17.5088 10.7657 16.6817 11.3975 16.3873 12.2719H14.7157C14.3274 12.2719 14.0126 12.5867 14.0126 12.975C14.0126 13.3634 14.3274 13.6782 14.7157 13.6782H16.3874C16.6818 14.5526 17.5089 15.1844 18.4814 15.1844C19.4538 15.1844 20.2809 14.5526 20.5754 13.6782H31.2845C31.6728 13.6782 31.9876 13.3634 31.9876 12.975C31.9876 12.5867 31.6728 12.2719 31.2844 12.2719ZM18.4813 13.7782C18.0385 13.7782 17.6782 13.4179 17.6782 12.975C17.6782 12.5322 18.0385 12.1719 18.4813 12.1719C18.9241 12.1719 19.2844 12.5322 19.2844 12.975C19.2844 13.4179 18.9241 13.7782 18.4813 13.7782Z" fill="white"/>
<path d="M31.2844 18.2969H29.6128C29.3183 17.4224 28.4912 16.7906 27.5188 16.7906C26.5463 16.7906 25.7192 17.4224 25.4248 18.2969H14.7157C14.3274 18.2969 14.0126 18.6117 14.0126 19C14.0126 19.3883 14.3274 19.7031 14.7157 19.7031H25.4248C25.7192 20.5776 26.5464 21.2094 27.5188 21.2094C28.4912 21.2094 29.3184 20.5776 29.6128 19.7031H31.2845C31.6728 19.7031 31.9876 19.3883 31.9876 19C31.9876 18.6117 31.6728 18.2969 31.2844 18.2969ZM27.5188 19.8031C27.076 19.8031 26.7157 19.4428 26.7157 19C26.7157 18.5572 27.076 18.1969 27.5188 18.1969C27.9616 18.1969 28.3219 18.5572 28.3219 19C28.3219 19.4428 27.9616 19.8031 27.5188 19.8031Z" fill="white"/>
<path d="M31.2844 24.3219H23.5878C23.2934 23.4474 22.4663 22.8156 21.4938 22.8156C20.5214 22.8156 19.6942 23.4474 19.3998 24.3219H14.7157C14.3274 24.3219 14.0126 24.6367 14.0126 25.025C14.0126 25.4133 14.3274 25.7281 14.7157 25.7281H19.3998C19.6942 26.6026 20.5214 27.2344 21.4938 27.2344C22.4663 27.2344 23.2934 26.6026 23.5878 25.7281H31.2845C31.6728 25.7281 31.9876 25.4133 31.9876 25.025C31.9876 24.6367 31.6728 24.3219 31.2844 24.3219ZM21.4938 25.8282C21.051 25.8282 20.6907 25.4679 20.6907 25.025C20.6907 24.5822 21.051 24.2219 21.4938 24.2219C21.9367 24.2219 22.2969 24.5822 22.2969 25.025C22.2969 25.4678 21.9367 25.8282 21.4938 25.8282Z" fill="white"/>
<defs>
<filter id="filter0_d" x="0" y="0" width="42" height="42" filterUnits="userSpaceOnUse" color-interpolation-filters="sRGB">
<feFlood flood-opacity="0" result="BackgroundImageFix"/>
<feColorMatrix in="SourceAlpha" type="matrix" values="0 0 0 0 0 0 0 0 0 0 0 0 0 0 0 0 0 0 127 0" result="hardAlpha"/>
<feOffset dx="-2" dy="2"/>
<feGaussianBlur stdDeviation="2"/>
<feColorMatrix type="matrix" values="0 0 0 0 0.921569 0 0 0 0 0.298039 0 0 0 0 0.376471 0 0 0 0.25 0"/>
<feBlend mode="normal" in2="BackgroundImageFix" result="effect1_dropShadow"/>
<feBlend mode="normal" in="SourceGraphic" in2="effect1_dropShadow" result="shape"/>
</filter>
</defs>
</svg>
