<svg width="24" height="24" viewBox="0 0 24 24" fill="none" xmlns="http://www.w3.org/2000/svg">
<path d="M12 1C5.92059 1 1 5.91975 1 12C1 13.9294 1.5032 15.8138 2.45876 17.4758L1.04146 21.8771C0.942596 22.1839 1.02383 22.5203 1.25177 22.7482C1.47752 22.974 1.81305 23.0582 2.12289 22.9585L6.52417 21.5412C8.18619 22.4968 10.0706 23 12 23C18.0794 23 23 18.0802 23 12C23 5.92059 18.0802 1 12 1ZM12 21.2812C10.2572 21.2812 8.55847 20.795 7.0873 19.875C6.87564 19.7428 6.61279 19.707 6.36824 19.7857L3.19107 20.8089L4.21426 17.6318C4.29181 17.3907 4.25908 17.1275 4.1248 16.9127C3.205 15.4415 2.71875 13.7428 2.71875 12C2.71875 6.88235 6.88235 2.71875 12 2.71875C17.1176 2.71875 21.2812 6.88235 21.2812 12C21.2812 17.1176 17.1176 21.2812 12 21.2812ZM13.0742 12C13.0742 12.5932 12.5933 13.0742 12 13.0742C11.4067 13.0742 10.9258 12.5932 10.9258 12C10.9258 11.4067 11.4067 10.9258 12 10.9258C12.5933 10.9258 13.0742 11.4067 13.0742 12ZM17.3711 12C17.3711 12.5932 16.8902 13.0742 16.2969 13.0742C15.7035 13.0742 15.2227 12.5932 15.2227 12C15.2227 11.4067 15.7035 10.9258 16.2969 10.9258C16.8902 10.9258 17.3711 11.4067 17.3711 12ZM8.77734 12C8.77734 12.5932 8.29646 13.0742 7.70312 13.0742C7.10995 13.0742 6.62891 12.5932 6.62891 12C6.62891 11.4067 7.10995 10.9258 7.70312 10.9258C8.29646 10.9258 8.77734 11.4067 8.77734 12Z" fill="#FFC4CC"/>
<path d="M13.75 19C16.6449 19 19 16.6449 19 13.75C19 13.3358 18.6642 13 18.25 13C17.8358 13 17.5 13.3358 17.5 13.75C17.5 15.8178 15.8178 17.5 13.75 17.5C13.3358 17.5 13 17.8358 13 18.25C13 18.6642 13.3358 19 13.75 19Z" fill="#FFC4CC"/>
</svg>
