<svg width="22" height="22" viewBox="0 0 22 22" fill="none" xmlns="http://www.w3.org/2000/svg">
<path d="M20.5514 9.61074L20.5497 9.60912L20.545 9.6044L20.545 9.60436L12.3905 1.45102C12.0193 1.07967 11.5251 0.875 11.0001 0.875C10.4751 0.875 9.98094 1.07967 9.60957 1.45101L1.4546 9.605C1.45237 9.60722 1.44875 9.61083 1.44511 9.61465C0.683371 10.3818 0.684978 11.6253 1.44987 12.3901C1.79863 12.739 2.25919 12.9413 2.75138 12.9634C2.77316 12.9654 2.79497 12.9664 2.81692 12.9664H3.01696V18.8452C3.01696 20.1024 4.03984 21.125 5.29718 21.125H8.48933C8.88205 21.125 9.20033 20.8066 9.20033 20.4141V15.707C9.20033 15.234 9.5855 14.8489 10.0587 14.8489H11.9415C12.4147 14.8489 12.7997 15.2339 12.7997 15.707V20.4141C12.7997 20.8066 13.118 21.125 13.5107 21.125H16.7029C17.9604 21.125 18.9831 20.1024 18.9831 18.8452V12.9664H19.1597C19.6845 12.9664 20.1787 12.7618 20.5502 12.3903L20.5502 12.3903C21.3162 11.624 21.3166 10.3775 20.5514 9.61074ZM2.45563 11.3848L2.45558 11.3848C2.24408 11.1733 2.24343 10.8292 2.45375 10.6167C2.45522 10.6153 2.4566 10.614 2.45789 10.6126L10.6153 2.45634L10.6153 2.45629C10.7182 2.35329 10.8544 2.29688 11.0001 2.29688C11.1456 2.29688 11.2819 2.35328 11.385 2.45634L19.5421 10.6125L19.5456 10.6158C19.5457 10.6159 19.5458 10.616 19.5459 10.6161C19.546 10.6163 19.5462 10.6165 19.5464 10.6166C19.7567 10.8293 19.756 11.1735 19.5447 11.3849C19.4415 11.488 19.3052 11.5446 19.1597 11.5446H18.2721C17.8794 11.5446 17.5611 11.8628 17.5611 12.2555V18.8452C17.5611 19.3181 17.1761 19.7031 16.7029 19.7031H14.2217V15.707C14.2217 14.4498 13.199 13.427 11.9415 13.427H10.0587C8.80121 13.427 7.77834 14.4498 7.77834 15.707V19.7031H5.29718C4.82413 19.7031 4.43895 19.3181 4.43895 18.8452V12.2555C4.43895 11.8628 4.12065 11.5446 3.72796 11.5446H2.85969C2.85054 11.544 2.84078 11.5435 2.83039 11.5434C2.68799 11.5409 2.55525 11.4846 2.45563 11.3848ZM2.47306 10.5931L2.47272 10.5937C2.47285 10.5935 2.47297 10.5933 2.47308 10.5931L2.47306 10.5931Z" fill="#F8B3BC" stroke="#F8B3BC" stroke-width="0.25"/>
</svg>
