<svg width="55" height="10" viewBox="0 0 55 10" fill="none" xmlns="http://www.w3.org/2000/svg">
<rect width="55" height="10" rx="5" fill="#B1CCFF"/>
<path d="M13.575 6.615C13.595 6.65833 13.605 6.70167 13.605 6.745C13.605 6.82167 13.5733 6.88667 13.51 6.94C13.45 6.99333 13.38 7.02 13.3 7.02C13.2467 7.02 13.1967 7.00667 13.15 6.98C13.1033 6.95 13.0667 6.905 13.04 6.845L12.74 6.175H10.98L10.68 6.845C10.6533 6.905 10.6167 6.95 10.57 6.98C10.5233 7.00667 10.4717 7.02 10.415 7.02C10.3383 7.02 10.2683 6.99333 10.205 6.94C10.1417 6.88667 10.11 6.82167 10.11 6.745C10.11 6.70167 10.12 6.65833 10.14 6.615L11.52 3.65C11.55 3.58333 11.595 3.53333 11.655 3.5C11.7183 3.46333 11.785 3.445 11.855 3.445C11.925 3.445 11.99 3.46333 12.05 3.5C12.1133 3.53333 12.16 3.58333 12.19 3.65L13.575 6.615ZM11.2 5.675H12.52L11.86 4.19L11.2 5.675ZM15.0109 7.03C14.9143 7.03 14.8359 7.00167 14.7759 6.945C14.7193 6.885 14.6909 6.805 14.6909 6.705V3.78C14.6909 3.68333 14.7176 3.60833 14.7709 3.555C14.8276 3.50167 14.9043 3.475 15.0009 3.475H16.2309C16.6076 3.475 16.9009 3.57 17.1109 3.76C17.3209 3.94667 17.4259 4.21 17.4259 4.55C17.4259 4.89 17.3209 5.155 17.1109 5.345C16.9009 5.535 16.6076 5.63 16.2309 5.63H15.3359V6.705C15.3359 6.805 15.3059 6.885 15.2459 6.945C15.1893 7.00167 15.1109 7.03 15.0109 7.03ZM16.1509 5.135C16.5943 5.135 16.8159 4.94167 16.8159 4.555C16.8159 4.16833 16.5943 3.975 16.1509 3.975H15.3359V5.135H16.1509ZM21.4107 6.615C21.4307 6.65833 21.4407 6.70167 21.4407 6.745C21.4407 6.82167 21.4091 6.88667 21.3457 6.94C21.2857 6.99333 21.2157 7.02 21.1357 7.02C21.0824 7.02 21.0324 7.00667 20.9857 6.98C20.9391 6.95 20.9024 6.905 20.8757 6.845L20.5757 6.175H18.8157L18.5157 6.845C18.4891 6.905 18.4524 6.95 18.4057 6.98C18.3591 7.00667 18.3074 7.02 18.2507 7.02C18.1741 7.02 18.1041 6.99333 18.0407 6.94C17.9774 6.88667 17.9457 6.82167 17.9457 6.745C17.9457 6.70167 17.9557 6.65833 17.9757 6.615L19.3557 3.65C19.3857 3.58333 19.4307 3.53333 19.4907 3.5C19.5541 3.46333 19.6207 3.445 19.6907 3.445C19.7607 3.445 19.8257 3.46333 19.8857 3.5C19.9491 3.53333 19.9957 3.58333 20.0257 3.65L21.4107 6.615ZM19.0357 5.675H20.3557L19.6957 4.19L19.0357 5.675ZM25.3467 6.595C25.3867 6.655 25.4067 6.71333 25.4067 6.77C25.4067 6.84667 25.375 6.91 25.3117 6.96C25.2517 7.01 25.18 7.035 25.0967 7.035C25.0433 7.035 24.9917 7.02333 24.9417 7C24.895 6.97333 24.855 6.935 24.8217 6.885L24.1567 5.875C24.09 5.76833 24.0183 5.69333 23.9417 5.65C23.8683 5.60667 23.7717 5.585 23.6517 5.585H23.1617V6.705C23.1617 6.805 23.1333 6.885 23.0767 6.945C23.02 7.00167 22.9433 7.03 22.8467 7.03C22.75 7.03 22.6717 7.00167 22.6117 6.945C22.555 6.885 22.5267 6.805 22.5267 6.705V3.78C22.5267 3.68333 22.5533 3.60833 22.6067 3.555C22.6633 3.50167 22.74 3.475 22.8367 3.475H24.0867C24.4867 3.475 24.79 3.565 24.9967 3.745C25.2067 3.92167 25.3117 4.17833 25.3117 4.515C25.3117 4.78833 25.2333 5.01333 25.0767 5.19C24.9233 5.36333 24.705 5.475 24.4217 5.525C24.5183 5.54833 24.6033 5.59 24.6767 5.65C24.75 5.71 24.8217 5.79333 24.8917 5.9L25.3467 6.595ZM23.9967 5.09C24.24 5.09 24.4183 5.045 24.5317 4.955C24.645 4.86167 24.7017 4.72 24.7017 4.53C24.7017 4.33667 24.645 4.19667 24.5317 4.11C24.4183 4.02 24.24 3.975 23.9967 3.975H23.1567V5.09H23.9967ZM27.6606 7.025C27.5606 7.025 27.4806 6.99667 27.4206 6.94C27.3639 6.88 27.3356 6.80167 27.3356 6.705V4.005H26.4256C26.2256 4.005 26.1256 3.91667 26.1256 3.74C26.1256 3.56333 26.2256 3.475 26.4256 3.475H28.8906C29.0906 3.475 29.1906 3.56333 29.1906 3.74C29.1906 3.91667 29.0906 4.005 28.8906 4.005H27.9806V6.705C27.9806 6.80167 27.9506 6.88 27.8906 6.94C27.8339 6.99667 27.7573 7.025 27.6606 7.025ZM33.302 3.45C33.3953 3.45 33.4703 3.48 33.527 3.54C33.5837 3.59667 33.612 3.67333 33.612 3.77V6.73C33.612 6.82333 33.5853 6.89667 33.532 6.95C33.4787 7.00333 33.4087 7.03 33.322 7.03C33.2353 7.03 33.167 7.00333 33.117 6.95C33.067 6.89667 33.042 6.82333 33.042 6.73V4.67L32.192 6.28C32.152 6.35333 32.1087 6.40833 32.062 6.445C32.0153 6.47833 31.9603 6.495 31.897 6.495C31.8337 6.495 31.7787 6.47833 31.732 6.445C31.6853 6.41167 31.642 6.35667 31.602 6.28L30.747 4.695V6.73C30.747 6.82 30.7203 6.89333 30.667 6.95C30.617 7.00333 30.5487 7.03 30.462 7.03C30.3753 7.03 30.307 7.00333 30.257 6.95C30.207 6.89667 30.182 6.82333 30.182 6.73V3.77C30.182 3.67333 30.2087 3.59667 30.262 3.54C30.3187 3.48 30.3937 3.45 30.487 3.45C30.617 3.45 30.7187 3.52167 30.792 3.665L31.902 5.78L33.007 3.665C33.0803 3.52167 33.1787 3.45 33.302 3.45ZM35.2861 7C35.1894 7 35.1128 6.97333 35.0561 6.92C35.0028 6.86667 34.9761 6.79167 34.9761 6.695V3.78C34.9761 3.68333 35.0028 3.60833 35.0561 3.555C35.1128 3.50167 35.1894 3.475 35.2861 3.475H37.0911C37.1878 3.475 37.2628 3.49667 37.3161 3.54C37.3694 3.58333 37.3961 3.645 37.3961 3.725C37.3961 3.80833 37.3694 3.87333 37.3161 3.92C37.2628 3.96333 37.1878 3.985 37.0911 3.985H35.6061V4.955H36.9911C37.0878 4.955 37.1628 4.97667 37.2161 5.02C37.2694 5.06333 37.2961 5.12667 37.2961 5.21C37.2961 5.29 37.2694 5.35167 37.2161 5.395C37.1628 5.43833 37.0878 5.46 36.9911 5.46H35.6061V6.49H37.0911C37.1878 6.49 37.2628 6.51333 37.3161 6.56C37.3694 6.60333 37.3961 6.66667 37.3961 6.75C37.3961 6.83 37.3694 6.89167 37.3161 6.935C37.2628 6.97833 37.1878 7 37.0911 7H35.2861ZM41.1904 3.45C41.2838 3.45 41.3571 3.48 41.4104 3.54C41.4671 3.59667 41.4954 3.67333 41.4954 3.77V6.705C41.4954 6.80167 41.4671 6.88 41.4104 6.94C41.3538 7 41.2804 7.03 41.1904 7.03C41.0838 7.03 41.0021 6.99167 40.9454 6.915L39.1204 4.54V6.705C39.1204 6.80167 39.0938 6.88 39.0404 6.94C38.9871 7 38.9138 7.03 38.8204 7.03C38.7271 7.03 38.6538 7 38.6004 6.94C38.5471 6.88 38.5204 6.80167 38.5204 6.705V3.77C38.5204 3.67333 38.5488 3.59667 38.6054 3.54C38.6621 3.48 38.7371 3.45 38.8304 3.45C38.9338 3.45 39.0138 3.48833 39.0704 3.565L40.8904 5.93V3.77C40.8904 3.67333 40.9171 3.59667 40.9704 3.54C41.0271 3.48 41.1004 3.45 41.1904 3.45ZM44.0108 7.025C43.9108 7.025 43.8308 6.99667 43.7708 6.94C43.7141 6.88 43.6858 6.80167 43.6858 6.705V4.005H42.7758C42.5758 4.005 42.4758 3.91667 42.4758 3.74C42.4758 3.56333 42.5758 3.475 42.7758 3.475H45.2408C45.4408 3.475 45.5408 3.56333 45.5408 3.74C45.5408 3.91667 45.4408 4.005 45.2408 4.005H44.3308V6.705C44.3308 6.80167 44.3008 6.88 44.2408 6.94C44.1841 6.99667 44.1074 7.025 44.0108 7.025Z" fill="#4C5CEB"/>
</svg>
