<svg width="20" height="20" viewBox="0 0 20 20" fill="none" xmlns="http://www.w3.org/2000/svg">
<path d="M10.5323 12.6703C10.2607 12.4314 9.81899 12.4674 9.58013 12.739L7.06063 15.5791V4.22832C7.06063 3.8553 6.75306 3.54773 6.38004 3.54773C6.00703 3.54773 5.69945 3.8553 5.69945 4.22832V15.5791L3.17995 12.739C2.90837 12.4674 2.49936 12.4314 2.22778 12.6703C1.9562 12.9418 1.92021 13.3509 2.15907 13.6224L5.8696 17.7747C6.14772 18.1183 6.63854 18.0659 6.85776 17.7747L10.601 13.6224C10.8399 13.3541 10.8072 12.9091 10.5323 12.6703Z" fill="#EB4C60"/>
<path d="M17.8193 6.40753L14.1415 2.25527C13.8143 1.9248 13.4053 1.90516 13.1206 2.25527L9.37733 6.40753C9.13847 6.67911 9.17446 7.12084 9.44604 7.3597C9.86487 7.69346 10.287 7.46441 10.3982 7.29099L12.9177 4.45083V15.7689C12.9177 16.1419 13.2253 16.4495 13.5983 16.4495C13.9713 16.4495 14.2789 16.1779 14.2789 15.8016V4.45411L16.7984 7.29426C17.07 7.56584 17.479 7.60184 17.7506 7.36298C18.0221 7.08812 18.0581 6.67911 17.8193 6.40753Z" fill="#EB4C60"/>
</svg>
