<svg width="7" height="8" viewBox="0 0 7 8" fill="none" xmlns="http://www.w3.org/2000/svg">
<path d="M6.53334 0.796875H0.46666C0.208923 0.796875 0 1.03564 0 1.3302V2.93024C0 3.22473 0.208923 3.46356 0.46666 3.46356H3.73333V6.93024C3.73333 7.07751 3.83779 7.1969 3.96666 7.1969H5.83335C5.96222 7.1969 6.06668 7.07751 6.06668 6.93024V3.46356H6.53334C6.79108 3.46356 7 3.22473 7 2.93024V1.3302C7 1.03564 6.79108 0.796875 6.53334 0.796875V0.796875ZM5.68248 1.50262C5.64948 1.4649 5.61716 1.4281 5.58496 1.39209C5.59441 1.37323 5.59959 1.35193 5.60002 1.3302V1.06354H5.83335V1.76648C5.79666 1.66925 5.74566 1.58002 5.68248 1.50262ZM5.36669 1.06354V1.16382C5.32877 1.12823 5.28979 1.09503 5.25 1.06354H5.36669ZM3.85002 1.06354H4.43332C4.96839 1.06354 5.17496 1.2998 5.51751 1.69116C5.69754 1.89685 5.83335 2.60156 5.83335 3.3302V6.13019H3.96666V5.86353H4.66665C4.73111 5.86353 4.78334 5.80383 4.78334 5.73022C4.78334 5.65656 4.73111 5.59686 4.66665 5.59686H3.96666V5.3302H4.19999C4.26445 5.3302 4.31668 5.27051 4.31668 5.1969C4.31668 5.12323 4.26445 5.06354 4.19999 5.06354H3.96666V4.79688H4.66665C4.73111 4.79688 4.78334 4.73718 4.78334 4.66351C4.78334 4.5899 4.73111 4.53021 4.66665 4.53021H3.96666V4.26355H4.19999C4.26445 4.26355 4.31668 4.20386 4.31668 4.13019C4.31668 4.05658 4.26445 3.99689 4.19999 3.99689H3.96666V3.73022H4.66665C4.73111 3.73022 4.78334 3.67053 4.78334 3.59686C4.78334 3.52325 4.73111 3.46356 4.66665 3.46356H3.96666V3.3302C3.96666 3.28516 3.96281 3.24127 3.96073 3.1969H4.19999C4.26445 3.1969 4.31668 3.13721 4.31668 3.06354C4.31668 2.98993 4.26445 2.93024 4.19999 2.93024H3.93633C3.92383 2.84033 3.90711 2.75134 3.88618 2.66351H4.66665C4.73111 2.66351 4.78334 2.60382 4.78334 2.53021C4.78334 2.45654 4.73111 2.39685 4.66665 2.39685H3.80879C3.7776 2.30566 3.74177 2.21661 3.7015 2.13019H3.85002C3.91443 2.13019 3.96666 2.0705 3.96666 1.99689C3.96666 1.92322 3.91443 1.86353 3.85002 1.86353H3.55399C3.49541 1.76978 3.43127 1.68073 3.36211 1.59686H3.73333C3.79779 1.59686 3.85002 1.53717 3.85002 1.46356C3.85002 1.38989 3.79779 1.3302 3.73333 1.3302H3.10555C2.98971 1.22748 2.86527 1.13812 2.73395 1.06354H3.85002ZM0.46666 3.1969C0.337791 3.1969 0.23333 3.07751 0.23333 2.93024V1.3302C0.23333 1.18292 0.337791 1.06354 0.46666 1.06354V1.86353C0.46666 1.93719 0.51889 1.99689 0.583351 1.99689C0.647758 1.99689 0.699989 1.93719 0.699989 1.86353V1.06354H0.933319V1.3302C0.933319 1.40387 0.98555 1.46356 1.05001 1.46356C1.11442 1.46356 1.16665 1.40387 1.16665 1.3302V1.06354H1.39998V1.86353C1.39998 1.93719 1.45221 1.99689 1.51667 1.99689C1.58108 1.99689 1.63331 1.93719 1.63331 1.86353V1.06354H1.75C1.78931 1.06354 1.82781 1.06738 1.86669 1.07007V1.3302C1.86669 1.40387 1.91892 1.46356 1.98333 1.46356C2.04779 1.46356 2.10002 1.40387 2.10002 1.3302V1.10046C2.17885 1.11633 2.25677 1.13763 2.33335 1.16437V1.86353C2.33335 1.93719 2.38558 1.99689 2.44999 1.99689C2.51445 1.99689 2.56668 1.93719 2.56668 1.86353V1.2674C3.23751 1.61426 3.68526 2.35693 3.72997 3.1969H0.46666ZM3.96666 6.93024V6.39685H5.83335V6.93024H3.96666ZM6.76667 2.93024C6.76667 3.07751 6.66221 3.1969 6.53334 3.1969H6.06513C6.0607 2.78735 6.00777 2.38043 5.90791 1.98712C5.92126 1.99341 5.93557 1.9967 5.94999 1.99689C6.01445 1.99689 6.06668 1.93719 6.06668 1.86353V1.06354H6.30001V1.3302C6.30001 1.40387 6.35224 1.46356 6.41665 1.46356C6.48111 1.46356 6.53334 1.40387 6.53334 1.3302V1.06354C6.66221 1.06354 6.76667 1.18292 6.76667 1.3302V2.93024Z" fill="#505050"/>
</svg>
