<svg width="24" height="24" viewBox="0 0 24 24" fill="none" xmlns="http://www.w3.org/2000/svg">
<path d="M12 2C6.48611 2 2 6.48611 2 12C2 17.5139 6.48611 22 12 22C17.5139 22 22 17.5139 22 12C22 6.48611 17.5139 2 12 2ZM12 20.2609C7.44521 20.2609 3.73911 16.5548 3.73911 12C3.73911 7.44521 7.44521 3.73915 12 3.73915C16.5548 3.73915 20.2609 7.44521 20.2609 12C20.2609 16.5548 16.5548 20.2609 12 20.2609Z" fill="#EB4C60"/>
<path d="M16.4389 7.34524C16.3129 7.21827 16.1224 7.18175 15.9598 7.25308L9.87284 9.86177C9.77024 9.90526 9.68848 9.98785 9.64413 10.0905L7.03544 16.1774C6.965 16.3409 7.00152 16.5304 7.1276 16.6566C7.21107 16.7383 7.32239 16.7826 7.43542 16.7826C7.49281 16.7826 7.55106 16.7704 7.60674 16.7479L13.6937 14.1392C13.7963 14.0948 13.878 14.0131 13.9224 13.9105L16.5311 7.82353C16.6007 7.66004 16.5641 7.47046 16.4389 7.34524ZM11.7833 12.8696C11.3041 12.8696 10.9137 12.4791 10.9137 12C10.9137 11.5209 11.3042 11.1305 11.7833 11.1305C12.2624 11.1305 12.6528 11.5209 12.6528 12C12.6529 12.4791 12.2624 12.8696 11.7833 12.8696Z" fill="#EB4C60"/>
</svg>
