<svg width="24" height="24" viewBox="0 0 24 24" fill="none" xmlns="http://www.w3.org/2000/svg">
<path d="M14.7702 9.76999L14.7702 9.76998C15.6682 8.87176 16.125 7.76961 16.125 6.49986C16.125 5.23054 15.6684 4.12824 14.77 3.22973L14.77 3.22971C13.8717 2.33164 12.7694 1.875 11.5 1.875C10.2303 1.875 9.12817 2.33164 8.22997 3.22987C7.33177 4.12809 6.875 5.23039 6.875 6.49986C6.875 7.76961 7.33177 8.87191 8.22997 9.77013L8.22999 9.77015C9.12845 10.6682 10.2307 11.125 11.5 11.125C12.7696 11.125 13.8718 10.6684 14.7702 9.76999ZM9.18103 4.1808C9.82882 3.53299 10.5844 3.21989 11.5 3.21989C12.4154 3.21989 13.1712 3.53299 13.8191 4.18081C14.4669 4.82878 14.7801 5.58456 14.7801 6.49986C14.7801 7.41544 14.4669 8.17108 13.8191 8.81905C13.1712 9.46701 12.4154 9.78011 11.5 9.78011C10.5847 9.78011 9.82912 9.46689 9.18102 8.81904C8.53308 8.17122 8.21985 7.41545 8.21985 6.49986C8.21985 5.58455 8.53307 4.82878 9.18103 4.1808Z" fill="#EB4C60" stroke="#EB4C60" stroke-width="0.25"/>
<path d="M19.9292 15.7192L19.9292 15.7193C20.0069 16.2002 20.0598 16.6566 20.086 17.0759M19.9292 15.7192L20.086 17.0759M19.9292 15.7192C19.8507 15.2337 19.7494 14.7739 19.6279 14.3527L19.6279 14.3527L19.9292 15.7192ZM20.086 17.0759C20.1118 17.4838 20.1249 17.9093 20.125 18.3405M20.086 17.0759L20.125 18.3405M17.217 11.1638L17.2171 11.1638C17.6535 11.3557 18.0325 11.6196 18.3427 11.9489C18.6368 12.261 18.8973 12.6386 19.1181 13.0696C19.1181 13.0696 19.1181 13.0697 19.1181 13.0697L19.0068 13.1267L17.217 11.1638ZM17.217 11.1638C16.7793 10.9717 16.296 10.8752 15.7818 10.8752C15.5419 10.8752 15.3233 10.9881 14.9578 11.2521L14.9578 11.2521M17.217 11.1638L14.9578 11.2521M14.9578 11.2521C14.7332 11.4147 14.4703 11.6027 14.1768 11.8108L14.9578 11.2521ZM13.1948 12.2898L13.1949 12.2898C13.6089 12.1414 13.938 11.9796 14.1768 11.8108L13.1948 12.2898ZM13.1948 12.2898C12.7975 12.4325 12.3953 12.5044 11.9994 12.5044C11.6038 12.5044 11.2017 12.4325 10.804 12.2898L10.8039 12.2898M13.1948 12.2898L10.8039 12.2898M10.8039 12.2898C10.3903 12.1416 10.0612 11.9798 9.82281 11.811C9.53205 11.6048 9.26902 11.4168 9.04102 11.2519C8.67588 10.988 8.45724 10.875 8.21735 10.875C7.70291 10.875 7.21974 10.9717 6.78222 11.164C6.34611 11.3555 5.96695 11.6194 5.65644 11.949L5.65643 11.9491M10.8039 12.2898L5.65643 11.9491M5.65643 11.9491C5.36229 12.2613 5.10177 12.6387 4.88118 13.0697L5.65643 11.9491ZM4.85502 21.0997L4.85498 21.0997C4.20092 20.4085 3.875 19.4761 3.875 18.3407C3.875 17.911 3.88795 17.4855 3.91358 17.0764L4.85502 21.0997ZM4.85502 21.0997C5.50105 21.7819 6.35522 22.125 7.38292 22.125H16.6171C17.6445 22.125 18.4987 21.7818 19.1448 21.0998L19.1448 21.0997M4.85502 21.0997L19.1448 21.0997M19.1448 21.0997C19.7991 20.409 20.125 19.4762 20.125 18.3405V18.3405M19.1448 21.0997L20.125 18.3405M18.1884 20.0244L18.1885 20.0244C18.5619 19.6301 18.751 19.0858 18.7512 18.3407L18.1884 20.0244ZM18.1884 20.0244C17.807 20.4272 17.2987 20.6281 16.6169 20.6281H7.38292C6.70099 20.6281 6.19273 20.4272 5.81142 20.0246C5.43796 19.6301 5.24884 19.0856 5.24884 18.3407C5.24884 17.9444 5.26062 17.5534 5.28415 17.1782L5.28415 17.1782M18.1884 20.0244L5.28415 17.1782M5.28415 17.1782C5.30697 16.8121 5.3537 16.4089 5.42324 15.9795L5.29985 15.9595L5.42324 15.9795C5.49177 15.5562 5.57882 15.1601 5.682 14.8024L5.28415 17.1782ZM6.61552 13.0213L6.61551 13.0213C6.41889 13.2301 6.23864 13.4916 6.08077 13.7996C5.91431 14.1248 5.78023 14.4621 5.682 14.8024L6.61552 13.0213ZM6.61552 13.0213C6.79547 12.8301 7.02398 12.6718 7.29652 12.5521L7.29653 12.5521M6.61552 13.0213L7.29653 12.5521M7.29653 12.5521C7.53501 12.4474 7.80397 12.3872 8.09839 12.3745C8.13727 12.3988 8.19624 12.4378 8.28103 12.4992L8.28106 12.4992M7.29653 12.5521L8.28106 12.4992M8.28106 12.4992C8.51245 12.6665 8.77907 12.8573 9.07373 13.0661L9.07381 13.0662M8.28106 12.4992L9.07381 13.0662M9.07381 13.0662C9.4174 13.3093 9.85586 13.526 10.374 13.7115M9.07381 13.0662L10.4162 13.5939M14.926 13.0658L14.9259 13.0659C14.5819 13.3093 14.1436 13.5258 13.625 13.7117M14.926 13.0658L11.9996 13.8763C11.4709 13.8763 10.9383 13.7812 10.4162 13.5939M14.926 13.0658C15.2274 12.852 15.4866 12.6667 15.718 12.4993C15.8029 12.4379 15.8619 12.3988 15.9008 12.3745C16.1953 12.3872 16.4643 12.4474 16.7029 12.5521C16.9752 12.6718 17.2038 12.8302 17.3838 13.0213L17.4733 12.9369M14.926 13.0658L17.4733 12.9369M13.625 13.7117L13.5828 13.594L13.625 13.7117C13.625 13.7117 13.625 13.7117 13.625 13.7117ZM13.625 13.7117C13.0903 13.9035 12.5433 14.0013 11.9996 14.0013C11.4558 14.0013 10.909 13.9035 10.374 13.7115M10.374 13.7115L10.4162 13.5939M10.374 13.7115C10.374 13.7115 10.374 13.7115 10.3739 13.7115L10.4162 13.5939M17.4733 12.9369L17.3838 13.0213C17.5804 13.23 17.7606 13.4914 17.9185 13.7997L17.9185 13.7998M17.4733 12.9369L17.9185 13.7998M17.9185 13.7998C18.0851 14.1248 18.2193 14.4623 18.3174 14.8022C18.4207 15.1604 18.5079 15.5564 18.5763 15.9793C18.6452 16.4067 18.692 16.8075 18.7149 17.1709H18.7149M17.9185 13.7998L18.7149 17.1709M18.7149 17.1709L18.7154 17.1788M18.7149 17.1709L18.7154 17.1788M18.7154 17.1788C18.7391 17.5524 18.751 17.9433 18.7512 18.3407L18.7154 17.1788ZM4.3715 14.3529C4.25013 14.774 4.14887 15.2337 4.07033 15.7192L4.88118 13.0697C4.6694 13.4833 4.49786 13.915 4.37151 14.3529L4.3715 14.3529ZM4.07032 15.7192C3.99252 16.1996 3.93977 16.6561 3.91358 17.0764L4.07032 15.7192Z" fill="#EB4C60" stroke="#EB4C60" stroke-width="0.25"/>
</svg>
