<svg width="14" height="14" viewBox="0 0 14 14" fill="none" xmlns="http://www.w3.org/2000/svg">
<path d="M6.99425 1.16667C3.77425 1.16667 1.16675 3.78 1.16675 7C1.16675 10.22 3.77425 12.8333 6.99425 12.8333C10.2201 12.8333 12.8334 10.22 12.8334 7C12.8334 3.78 10.2201 1.16667 6.99425 1.16667ZM7.00008 11.6667C4.42175 11.6667 2.33341 9.57833 2.33341 7C2.33341 4.42167 4.42175 2.33333 7.00008 2.33333C9.57841 2.33333 11.6667 4.42167 11.6667 7C11.6667 9.57833 9.57841 11.6667 7.00008 11.6667Z" fill="#C7C7C7"/>
<path d="M7.29175 4.08333H6.41675V7.58333L9.47925 9.42083L9.91675 8.70333L7.29175 7.14583V4.08333Z" fill="#C7C7C7"/>
</svg>
