<svg width="8" height="8" viewBox="0 0 8 8" fill="none" xmlns="http://www.w3.org/2000/svg">
<path d="M7.53125 3.64902V1.82821C7.53125 1.0528 6.90041 0.421959 6.125 0.421959H4.64844C4.56214 0.421959 4.49219 0.491912 4.49219 0.578209C4.49219 0.664506 4.56214 0.734459 4.64844 0.734459H6.125C6.72809 0.734459 7.21875 1.22512 7.21875 1.82821V3.48454C7.10106 3.44407 6.975 3.42177 6.84375 3.42177H6.8125V2.52594C6.8125 2.1928 6.54147 1.92177 6.20833 1.92177H4.44792C4.27045 1.92177 4.11064 1.99871 4 2.12094C3.88936 1.99871 3.72955 1.92177 3.55208 1.92177H1.79167C1.45853 1.92177 1.1875 2.1928 1.1875 2.52593V3.42176H1.15625C1.025 3.42176 0.898938 3.44405 0.78125 3.48452V1.82821C0.78125 1.22512 1.27191 0.734459 1.875 0.734459H3.38281C3.46911 0.734459 3.53906 0.664506 3.53906 0.578209C3.53906 0.491912 3.46911 0.421959 3.38281 0.421959H1.875C1.09959 0.421959 0.46875 1.0528 0.46875 1.82821V3.64904C0.184563 3.8599 0 4.19779 0 4.57804V6.57804C0 6.66433 0.0699531 6.73429 0.15625 6.73429H0.46875V7.42179C0.46875 7.50808 0.538703 7.57804 0.625 7.57804H1.46894C1.55523 7.57804 1.62519 7.50808 1.62519 7.42179V6.73429H6.37481V7.42179C6.37481 7.50808 6.44477 7.57804 6.53106 7.57804H7.375C7.4613 7.57804 7.53125 7.50808 7.53125 7.42179V6.73429H7.84375C7.93005 6.73429 8 6.66433 8 6.57804V4.57804C8 4.19777 7.81544 3.85988 7.53125 3.64902ZM4.15625 2.52593C4.15625 2.3651 4.28709 2.23426 4.44792 2.23426H6.20834C6.36917 2.23426 6.50002 2.3651 6.50002 2.52593V3.42176H4.15625V2.52593ZM1.5 2.52593C1.5 2.3651 1.63084 2.23426 1.79167 2.23426H3.55209C3.71292 2.23426 3.84377 2.3651 3.84377 2.52593V3.42176H1.5V2.52593ZM1.31269 7.26552H0.78125V6.73427H1.31269V7.26552ZM7.21875 7.26552H6.68731V6.73427H7.21875V7.26552ZM7.6875 5.67177H1.43627C1.34997 5.67177 1.28002 5.74173 1.28002 5.82802C1.28002 5.91432 1.34997 5.98427 1.43627 5.98427H7.6875V6.42177H7.37878C7.37752 6.42174 7.37628 6.42158 7.375 6.42158H6.53106C6.52978 6.42158 6.52855 6.42174 6.52728 6.42177H1.47272C1.47145 6.42174 1.47022 6.42158 1.46894 6.42158H0.625C0.623719 6.42158 0.622484 6.42174 0.621219 6.42177H0.3125V4.57802C0.3125 4.11277 0.691 3.73427 1.15625 3.73427H1.34375H4H6.65625H6.84375C7.309 3.73427 7.6875 4.11277 7.6875 4.57802V5.67177Z" fill="#505050"/>
<path d="M4.11047 0.467786C4.08141 0.438723 4.04109 0.422005 4 0.422005C3.95891 0.422005 3.91859 0.438723 3.88953 0.467786C3.86047 0.496849 3.84375 0.537161 3.84375 0.578255C3.84375 0.619349 3.86047 0.659662 3.88953 0.688724C3.91859 0.717787 3.95891 0.734505 4 0.734505C4.04109 0.734505 4.08141 0.717787 4.11047 0.688724C4.13953 0.659662 4.15625 0.619505 4.15625 0.578255C4.15625 0.537161 4.13953 0.496833 4.11047 0.467786Z" fill="#505050"/>
<path d="M0.924189 5.71757C0.895127 5.68851 0.854814 5.67179 0.813721 5.67179C0.772471 5.67179 0.732314 5.68851 0.703252 5.71757C0.674189 5.74664 0.657471 5.78695 0.657471 5.82804C0.657471 5.86913 0.674189 5.90945 0.703252 5.93851C0.732314 5.96757 0.772627 5.98429 0.813721 5.98429C0.854814 5.98429 0.895127 5.96757 0.924189 5.93851C0.953252 5.90945 0.969971 5.86913 0.969971 5.82804C0.969971 5.78695 0.953252 5.74664 0.924189 5.71757Z" fill="#505050"/>
</svg>
