<svg width="8" height="8" viewBox="0 0 8 8" fill="none" xmlns="http://www.w3.org/2000/svg">
<path d="M6.1875 4.0625C6.44598 4.0625 6.65625 3.85223 6.65625 3.59375V0.9375H6.8125C6.8988 0.9375 6.96875 0.867554 6.96875 0.78125V0.15625C6.96875 0.0699463 6.8988 0 6.8125 0H1.1875C1.1012 0 1.03125 0.0699463 1.03125 0.15625V0.78125C1.03125 0.867554 1.1012 0.9375 1.1875 0.9375H1.34375V1.71875C1.34375 1.80505 1.4137 1.875 1.5 1.875C1.5863 1.875 1.65625 1.80505 1.65625 1.71875V0.9375H6.34375V3.59375C6.34375 3.67993 6.27368 3.75 6.1875 3.75H6.02771C5.97192 2.48206 5.17975 1.25 4 1.25C2.79865 1.25 2.02679 2.51123 1.97229 3.75H1.8125C1.72632 3.75 1.65625 3.67993 1.65625 3.59375V2.96875C1.65625 2.88245 1.5863 2.8125 1.5 2.8125C1.4137 2.8125 1.34375 2.88245 1.34375 2.96875V3.59375C1.34375 3.85223 1.55402 4.0625 1.8125 4.0625H1.97205C1.98187 4.3092 2.01398 4.56763 2.06134 4.78571C1.83289 4.81683 1.65625 5.01312 1.65625 5.25V5.5625C1.65625 5.6488 1.7262 5.71875 1.8125 5.71875H2.02319C2.14337 6.23206 2.45532 6.69934 2.88293 7.0061L2.60284 7.79126C2.58575 7.83911 2.59302 7.89227 2.62231 7.93378C2.65155 7.97528 2.69922 8 2.75 8H5.25C5.30078 8 5.34845 7.97528 5.37769 7.93378C5.40698 7.89227 5.41425 7.83911 5.39716 7.79126L5.11707 7.0061C5.54474 6.69928 5.85663 6.23199 5.97681 5.71875H6.1875C6.2738 5.71875 6.34375 5.6488 6.34375 5.5625V5.25C6.34375 5.01312 6.16711 4.81683 5.93866 4.78571C5.98602 4.56763 6.01807 4.3092 6.02795 4.0625H6.1875ZM1.34375 0.625V0.3125H6.65625V0.625H1.34375ZM4 1.5625C4.94769 1.5625 5.71875 2.61389 5.71875 3.90625C5.71875 4.20026 5.6806 4.52972 5.61926 4.78125H5.29175C5.36298 4.51953 5.40625 4.1983 5.40625 3.90625C5.40625 2.98206 4.88843 1.875 4 1.875C3.12372 1.875 2.59375 2.96185 2.59375 3.90625C2.59375 4.1983 2.63702 4.51953 2.70825 4.78125H2.38074C2.3194 4.52972 2.28125 4.20026 2.28125 3.90625C2.28125 2.61389 3.05231 1.5625 4 1.5625ZM5.09375 3.90625C5.09375 4.20074 5.04382 4.53705 4.96631 4.78125H3.03369C2.95618 4.53711 2.90625 4.20074 2.90625 3.90625C2.90625 3.19348 3.29529 2.1875 4 2.1875C4.7038 2.1875 5.09375 3.19171 5.09375 3.90625ZM2.97162 7.6875L3.15576 7.17139C3.42157 7.30493 3.70996 7.375 4 7.375C4.29004 7.375 4.57843 7.30493 4.84424 7.17139L5.02838 7.6875H2.97162ZM4 7.0625C3.2193 7.0625 2.55042 6.45947 2.34552 5.71857H5.65442C5.44965 6.45935 4.7807 7.0625 4 7.0625ZM6.03125 5.25V5.40625H1.96875V5.25C1.96875 5.16382 2.03882 5.09375 2.125 5.09375H5.875C5.96118 5.09375 6.03125 5.16382 6.03125 5.25Z" fill="#505050"/>
<path d="M1.65625 2.34375C1.65625 2.43005 1.5863 2.5 1.5 2.5C1.4137 2.5 1.34375 2.43005 1.34375 2.34375C1.34375 2.25745 1.4137 2.1875 1.5 2.1875C1.5863 2.1875 1.65625 2.25745 1.65625 2.34375Z" fill="#505050"/>
</svg>
