<svg width="22" height="24" viewBox="0 0 22 24" fill="none" xmlns="http://www.w3.org/2000/svg">
<path d="M19.6088 16.3085V11.7391C19.6088 7.71741 16.8366 4.33144 13.1028 3.39066C13.2593 3.07627 13.3479 2.72231 13.3479 2.34788C13.3479 1.05323 12.2947 0 11.0001 0C9.70547 0 8.65223 1.05323 8.65223 2.34783C8.65223 2.72227 8.74078 3.07622 8.89734 3.39061C5.16356 4.33139 2.39138 7.71741 2.39138 11.7391V16.3085C1.48045 16.6315 0.826172 17.5014 0.826172 18.5217C0.826172 19.8163 1.87941 20.8695 3.174 20.8695H7.16578C7.5293 22.6535 9.11034 24 11.0001 24C12.8898 24 14.4708 22.6535 14.8344 20.8695H18.8262C20.1208 20.8695 21.174 19.8163 21.174 18.5217C21.174 17.5015 20.5197 16.6316 19.6088 16.3085ZM11.0001 1.5652C11.4316 1.5652 11.7827 1.9163 11.7827 2.34783C11.7827 2.77936 11.4316 3.13045 11.0001 3.13045C10.5685 3.13045 10.2174 2.77936 10.2174 2.34783C10.2174 1.9163 10.5685 1.5652 11.0001 1.5652ZM11.0001 22.4348C9.97978 22.4348 9.10992 21.7753 8.78686 20.8643H13.2133C12.8902 21.7753 12.0203 22.4348 11.0001 22.4348ZM18.8262 19.3043H3.174C2.74247 19.3043 2.39138 18.9533 2.39138 18.5217C2.39138 18.0902 2.74247 17.7391 3.174 17.7391H4.73925C5.17144 17.7391 5.52188 17.3887 5.52188 16.9565C5.52188 16.5242 5.17148 16.1738 4.73925 16.1738H3.95658V11.739C3.95658 7.85527 7.11628 4.69556 11.0001 4.69556C14.8838 4.69556 18.0435 7.85527 18.0435 11.739V16.1738H17.2603C16.8281 16.1738 16.4776 16.5242 16.4776 16.9565C16.4776 17.3887 16.828 17.7391 17.2603 17.7391H18.8262C19.2577 17.7391 19.6088 18.0902 19.6088 18.5217C19.6088 18.9533 19.2577 19.3043 18.8262 19.3043Z" fill="#FFC4CC"/>
<path d="M11 6.26086C7.97929 6.26086 5.52173 8.71843 5.52173 11.7391C5.52173 12.1713 5.87212 12.5218 6.30435 12.5218C6.73659 12.5218 7.08698 12.1714 7.08698 11.7391C7.08698 9.58149 8.84235 7.82611 11 7.82611C11.4322 7.82611 11.7826 7.47572 11.7826 7.04349C11.7826 6.61125 11.4322 6.26086 11 6.26086Z" fill="#FFC4CC"/>
</svg>
