<svg width="38" height="10" viewBox="0 0 38 10" fill="none" xmlns="http://www.w3.org/2000/svg">
<rect width="38" height="10" rx="5" fill="#FAC1C9"/>
<path d="M12.135 3.45C12.2317 3.45 12.3083 3.48 12.365 3.54C12.4217 3.59667 12.45 3.67333 12.45 3.77V6.705C12.45 6.80167 12.42 6.88 12.36 6.94C12.3033 7 12.2283 7.03 12.135 7.03C12.0383 7.03 11.9617 7 11.905 6.94C11.8483 6.88 11.82 6.80167 11.82 6.705V5.47H10.015V6.705C10.015 6.80167 9.985 6.88 9.925 6.94C9.86833 7 9.79167 7.03 9.695 7.03C9.60167 7.03 9.525 7 9.465 6.94C9.40833 6.88 9.38 6.80167 9.38 6.705V3.77C9.38 3.67333 9.40833 3.59667 9.465 3.54C9.52167 3.48 9.59833 3.45 9.695 3.45C9.79167 3.45 9.86833 3.48 9.925 3.54C9.985 3.59667 10.015 3.67333 10.015 3.77V4.95H11.82V3.77C11.82 3.67333 11.8483 3.59667 11.905 3.54C11.9617 3.48 12.0383 3.45 12.135 3.45ZM15.3781 7.045C15.0348 7.045 14.7365 6.97167 14.4831 6.825C14.2331 6.67833 14.0398 6.46833 13.9031 6.195C13.7665 5.92167 13.6981 5.60167 13.6981 5.235C13.6981 4.86833 13.7648 4.55 13.8981 4.28C14.0348 4.00667 14.2298 3.79667 14.4831 3.65C14.7365 3.50333 15.0348 3.43 15.3781 3.43C15.7215 3.43 16.0181 3.50333 16.2681 3.65C16.5215 3.79667 16.7148 4.00667 16.8481 4.28C16.9848 4.55 17.0531 4.86833 17.0531 5.235C17.0531 5.60167 16.9848 5.92167 16.8481 6.195C16.7115 6.46833 16.5165 6.67833 16.2631 6.825C16.0131 6.97167 15.7181 7.045 15.3781 7.045ZM15.3781 6.53C15.7015 6.53 15.9531 6.41833 16.1331 6.195C16.3165 5.97167 16.4081 5.65167 16.4081 5.235C16.4081 4.81833 16.3165 4.5 16.1331 4.28C15.9531 4.05667 15.7015 3.945 15.3781 3.945C15.0515 3.945 14.7965 4.05667 14.6131 4.28C14.4331 4.5 14.3431 4.81833 14.3431 5.235C14.3431 5.65167 14.4331 5.97167 14.6131 6.195C14.7965 6.41833 15.0515 6.53 15.3781 6.53ZM19.7596 7.045C19.2763 7.045 18.9096 6.92 18.6596 6.67C18.4096 6.42 18.2846 6.055 18.2846 5.575V3.77C18.2846 3.67333 18.3129 3.59667 18.3696 3.54C18.4263 3.48 18.5029 3.45 18.5996 3.45C18.6963 3.45 18.7729 3.48 18.8296 3.54C18.8863 3.59667 18.9146 3.67333 18.9146 3.77V5.61C18.9146 5.91333 18.9863 6.14333 19.1296 6.3C19.2729 6.45333 19.4829 6.53 19.7596 6.53C20.0329 6.53 20.2413 6.45167 20.3846 6.295C20.5279 6.13833 20.5996 5.91 20.5996 5.61V3.77C20.5996 3.67333 20.6279 3.59667 20.6846 3.54C20.7413 3.48 20.8179 3.45 20.9146 3.45C21.0113 3.45 21.0879 3.48 21.1446 3.54C21.2013 3.59667 21.2296 3.67333 21.2296 3.77V5.575C21.2296 6.05167 21.1046 6.41667 20.8546 6.67C20.6046 6.92 20.2396 7.045 19.7596 7.045ZM23.7916 7.045C23.5349 7.045 23.2916 7.01167 23.0616 6.945C22.8349 6.875 22.6499 6.78167 22.5066 6.665C22.4299 6.60833 22.3916 6.52833 22.3916 6.425C22.3916 6.355 22.4116 6.295 22.4516 6.245C22.4949 6.19167 22.5449 6.165 22.6016 6.165C22.6616 6.165 22.7299 6.18833 22.8066 6.235C22.9499 6.33833 23.0999 6.41333 23.2566 6.46C23.4133 6.50667 23.5866 6.53 23.7766 6.53C24.0199 6.53 24.2066 6.48833 24.3366 6.405C24.4666 6.31833 24.5316 6.19333 24.5316 6.03C24.5316 5.90333 24.4699 5.80667 24.3466 5.74C24.2266 5.67 24.0249 5.60333 23.7416 5.54C23.4483 5.47667 23.2099 5.40333 23.0266 5.32C22.8433 5.23667 22.7049 5.13 22.6116 5C22.5183 4.87 22.4716 4.705 22.4716 4.505C22.4716 4.29833 22.5299 4.11333 22.6466 3.95C22.7633 3.78667 22.9249 3.66 23.1316 3.57C23.3416 3.47667 23.5766 3.43 23.8366 3.43C24.3133 3.43 24.7016 3.55667 25.0016 3.81C25.0449 3.84667 25.0749 3.88333 25.0916 3.92C25.1116 3.95333 25.1216 3.99667 25.1216 4.05C25.1216 4.12 25.0999 4.18167 25.0566 4.235C25.0166 4.285 24.9683 4.31 24.9116 4.31C24.8783 4.31 24.8466 4.305 24.8166 4.295C24.7899 4.285 24.7533 4.26667 24.7066 4.24C24.5699 4.14 24.4366 4.06667 24.3066 4.02C24.1799 3.97 24.0233 3.945 23.8366 3.945C23.6099 3.945 23.4299 3.99167 23.2966 4.085C23.1666 4.175 23.1016 4.30167 23.1016 4.465C23.1016 4.60167 23.1599 4.70667 23.2766 4.78C23.3933 4.85333 23.5916 4.92167 23.8716 4.985C24.1683 5.05167 24.4083 5.12667 24.5916 5.21C24.7783 5.29 24.9199 5.39333 25.0166 5.52C25.1166 5.64667 25.1666 5.805 25.1666 5.995C25.1666 6.20167 25.1083 6.385 24.9916 6.545C24.8783 6.70167 24.7166 6.825 24.5066 6.915C24.2999 7.00167 24.0616 7.045 23.7916 7.045ZM26.6701 7C26.5734 7 26.4967 6.97333 26.4401 6.92C26.3867 6.86667 26.3601 6.79167 26.3601 6.695V3.78C26.3601 3.68333 26.3867 3.60833 26.4401 3.555C26.4967 3.50167 26.5734 3.475 26.6701 3.475H28.4751C28.5717 3.475 28.6467 3.49667 28.7001 3.54C28.7534 3.58333 28.7801 3.645 28.7801 3.725C28.7801 3.80833 28.7534 3.87333 28.7001 3.92C28.6467 3.96333 28.5717 3.985 28.4751 3.985H26.9901V4.955H28.3751C28.4717 4.955 28.5467 4.97667 28.6001 5.02C28.6534 5.06333 28.6801 5.12667 28.6801 5.21C28.6801 5.29 28.6534 5.35167 28.6001 5.395C28.5467 5.43833 28.4717 5.46 28.3751 5.46H26.9901V6.49H28.4751C28.5717 6.49 28.6467 6.51333 28.7001 6.56C28.7534 6.60333 28.7801 6.66667 28.7801 6.75C28.7801 6.83 28.7534 6.89167 28.7001 6.935C28.6467 6.97833 28.5717 7 28.4751 7H26.6701Z" fill="#EB4C60"/>
</svg>
