<svg width="86" height="18" viewBox="0 0 86 18" fill="none" xmlns="http://www.w3.org/2000/svg">
<path fill-rule="evenodd" clip-rule="evenodd" d="M5 0C2.23858 0 0 2.23858 0 5V13C0 15.7614 2.23858 18 5 18H77H86L82 9.5L86 0H77H5Z" fill="#EB4C60"/>
<path d="M16.596 13.06C16.412 13.06 16.264 13.004 16.152 12.892C16.04 12.772 15.984 12.62 15.984 12.436V5.14C15.984 4.956 16.036 4.812 16.14 4.708C16.252 4.596 16.404 4.54 16.596 4.54H20.892C21.276 4.54 21.468 4.708 21.468 5.044C21.468 5.38 21.276 5.548 20.892 5.548H17.208V8.2H20.652C21.036 8.2 21.228 8.368 21.228 8.704C21.228 9.04 21.036 9.208 20.652 9.208H17.208V12.436C17.208 12.628 17.152 12.78 17.04 12.892C16.936 13.004 16.788 13.06 16.596 13.06ZM26.7534 11.524C26.8654 11.524 26.9574 11.568 27.0294 11.656C27.1014 11.744 27.1374 11.856 27.1374 11.992C27.1374 12.224 26.9934 12.42 26.7054 12.58C26.4254 12.74 26.1174 12.864 25.7814 12.952C25.4534 13.04 25.1374 13.084 24.8334 13.084C23.9054 13.084 23.1734 12.816 22.6374 12.28C22.1014 11.736 21.8334 10.996 21.8334 10.06C21.8334 9.46 21.9494 8.928 22.1814 8.464C22.4214 8 22.7534 7.64 23.1774 7.384C23.6094 7.128 24.0974 7 24.6414 7C25.4254 7 26.0454 7.252 26.5014 7.756C26.9574 8.26 27.1854 8.94 27.1854 9.796C27.1854 10.116 27.0414 10.276 26.7534 10.276H23.0454C23.1254 11.516 23.7214 12.136 24.8334 12.136C25.1294 12.136 25.3854 12.096 25.6014 12.016C25.8174 11.936 26.0454 11.832 26.2854 11.704C26.3094 11.688 26.3734 11.656 26.4774 11.608C26.5894 11.552 26.6814 11.524 26.7534 11.524ZM24.6654 7.888C24.2014 7.888 23.8294 8.036 23.5494 8.332C23.2694 8.628 23.1014 9.044 23.0454 9.58H26.1414C26.1174 9.036 25.9774 8.62 25.7214 8.332C25.4734 8.036 25.1214 7.888 24.6654 7.888ZM30.7009 7C31.4769 7 32.0529 7.196 32.4289 7.588C32.8129 7.98 33.0049 8.576 33.0049 9.376V12.484C33.0049 12.668 32.9529 12.812 32.8489 12.916C32.7449 13.012 32.6009 13.06 32.4169 13.06C32.2409 13.06 32.1009 13.008 31.9969 12.904C31.8929 12.8 31.8409 12.66 31.8409 12.484V12.04C31.6889 12.376 31.4609 12.636 31.1569 12.82C30.8609 12.996 30.5129 13.084 30.1129 13.084C29.7289 13.084 29.3769 13.008 29.0569 12.856C28.7449 12.696 28.4969 12.48 28.3129 12.208C28.1289 11.936 28.0369 11.628 28.0369 11.284C28.0289 10.852 28.1369 10.516 28.3609 10.276C28.5849 10.028 28.9489 9.852 29.4529 9.748C29.9569 9.636 30.6569 9.58 31.5529 9.58H31.8289V9.232C31.8289 8.784 31.7369 8.46 31.5529 8.26C31.3689 8.06 31.0729 7.96 30.6649 7.96C30.3849 7.96 30.1209 7.996 29.8729 8.068C29.6249 8.14 29.3529 8.244 29.0569 8.38C28.8409 8.5 28.6889 8.56 28.6009 8.56C28.4809 8.56 28.3809 8.516 28.3009 8.428C28.2289 8.34 28.1929 8.228 28.1929 8.092C28.1929 7.972 28.2249 7.868 28.2889 7.78C28.3609 7.684 28.4729 7.592 28.6249 7.504C28.9049 7.352 29.2329 7.232 29.6089 7.144C29.9849 7.048 30.3489 7 30.7009 7ZM30.3289 12.184C30.7689 12.184 31.1289 12.036 31.4089 11.74C31.6889 11.436 31.8289 11.048 31.8289 10.576V10.264H31.6129C30.9889 10.264 30.5089 10.292 30.1729 10.348C29.8369 10.404 29.5969 10.5 29.4529 10.636C29.3089 10.764 29.2369 10.952 29.2369 11.2C29.2369 11.488 29.3409 11.724 29.5489 11.908C29.7569 12.092 30.0169 12.184 30.3289 12.184ZM37.2508 12.136C37.4268 12.152 37.5508 12.2 37.6228 12.28C37.7028 12.352 37.7428 12.456 37.7428 12.592C37.7428 12.752 37.6788 12.876 37.5508 12.964C37.4308 13.044 37.2508 13.076 37.0108 13.06L36.6868 13.036C36.0388 12.988 35.5548 12.792 35.2348 12.448C34.9148 12.096 34.7548 11.58 34.7548 10.9V8.08H34.0348C33.6828 8.08 33.5068 7.924 33.5068 7.612C33.5068 7.468 33.5508 7.356 33.6388 7.276C33.7348 7.188 33.8668 7.144 34.0348 7.144H34.7548V5.908C34.7548 5.724 34.8068 5.58 34.9108 5.476C35.0228 5.372 35.1708 5.32 35.3548 5.32C35.5388 5.32 35.6868 5.372 35.7988 5.476C35.9108 5.58 35.9668 5.724 35.9668 5.908V7.144H37.1548C37.3228 7.144 37.4508 7.188 37.5388 7.276C37.6348 7.356 37.6828 7.468 37.6828 7.612C37.6828 7.764 37.6348 7.88 37.5388 7.96C37.4508 8.04 37.3228 8.08 37.1548 8.08H35.9668V10.984C35.9668 11.36 36.0428 11.636 36.1948 11.812C36.3548 11.988 36.5948 12.088 36.9148 12.112L37.2508 12.136ZM42.8693 7.024C43.0533 7.024 43.1973 7.076 43.3013 7.18C43.4133 7.284 43.4693 7.428 43.4693 7.612V12.496C43.4693 12.664 43.4133 12.8 43.3013 12.904C43.1893 13.008 43.0413 13.06 42.8573 13.06C42.6893 13.06 42.5533 13.012 42.4493 12.916C42.3453 12.812 42.2933 12.676 42.2933 12.508V12.052C42.1093 12.388 41.8533 12.644 41.5253 12.82C41.2053 12.996 40.8453 13.084 40.4453 13.084C39.0213 13.084 38.3093 12.3 38.3093 10.732V7.612C38.3093 7.428 38.3613 7.284 38.4653 7.18C38.5773 7.076 38.7293 7.024 38.9213 7.024C39.1053 7.024 39.2493 7.076 39.3533 7.18C39.4653 7.284 39.5213 7.428 39.5213 7.612V10.72C39.5213 11.192 39.6173 11.54 39.8093 11.764C40.0013 11.988 40.2973 12.1 40.6973 12.1C41.1693 12.1 41.5453 11.948 41.8253 11.644C42.1133 11.34 42.2573 10.936 42.2573 10.432V7.612C42.2573 7.436 42.3133 7.296 42.4253 7.192C42.5373 7.08 42.6853 7.024 42.8693 7.024ZM47.9573 7.024C48.3413 7 48.5333 7.164 48.5333 7.516C48.5333 7.692 48.4893 7.824 48.4013 7.912C48.3133 8 48.1613 8.052 47.9453 8.068L47.5853 8.104C47.0813 8.152 46.7053 8.328 46.4573 8.632C46.2173 8.936 46.0973 9.304 46.0973 9.736V12.484C46.0973 12.676 46.0413 12.82 45.9293 12.916C45.8173 13.012 45.6733 13.06 45.4973 13.06C45.3213 13.06 45.1733 13.012 45.0533 12.916C44.9413 12.82 44.8853 12.676 44.8853 12.484V7.6C44.8853 7.416 44.9413 7.276 45.0533 7.18C45.1733 7.076 45.3213 7.024 45.4973 7.024C45.6573 7.024 45.7893 7.076 45.8933 7.18C46.0053 7.276 46.0613 7.412 46.0613 7.588V8.164C46.2213 7.812 46.4533 7.544 46.7573 7.36C47.0613 7.176 47.4053 7.068 47.7893 7.036L47.9573 7.024ZM53.4667 11.524C53.5787 11.524 53.6707 11.568 53.7427 11.656C53.8147 11.744 53.8507 11.856 53.8507 11.992C53.8507 12.224 53.7067 12.42 53.4187 12.58C53.1387 12.74 52.8307 12.864 52.4947 12.952C52.1667 13.04 51.8507 13.084 51.5467 13.084C50.6187 13.084 49.8867 12.816 49.3507 12.28C48.8147 11.736 48.5467 10.996 48.5467 10.06C48.5467 9.46 48.6627 8.928 48.8947 8.464C49.1347 8 49.4667 7.64 49.8907 7.384C50.3227 7.128 50.8107 7 51.3547 7C52.1387 7 52.7587 7.252 53.2147 7.756C53.6707 8.26 53.8987 8.94 53.8987 9.796C53.8987 10.116 53.7547 10.276 53.4667 10.276H49.7587C49.8387 11.516 50.4347 12.136 51.5467 12.136C51.8427 12.136 52.0987 12.096 52.3147 12.016C52.5307 11.936 52.7587 11.832 52.9987 11.704C53.0227 11.688 53.0867 11.656 53.1907 11.608C53.3027 11.552 53.3947 11.524 53.4667 11.524ZM51.3787 7.888C50.9147 7.888 50.5427 8.036 50.2627 8.332C49.9827 8.628 49.8147 9.044 49.7587 9.58H52.8547C52.8307 9.036 52.6907 8.62 52.4347 8.332C52.1867 8.036 51.8347 7.888 51.3787 7.888ZM59.7422 4.48C59.9262 4.48 60.0742 4.532 60.1862 4.636C60.2982 4.74 60.3542 4.88 60.3542 5.056V12.472C60.3542 12.656 60.2982 12.8 60.1862 12.904C60.0822 13.008 59.9382 13.06 59.7542 13.06C59.5702 13.06 59.4222 13.008 59.3102 12.904C59.2062 12.8 59.1542 12.656 59.1542 12.472V11.992C58.9782 12.344 58.7222 12.616 58.3862 12.808C58.0502 12.992 57.6622 13.084 57.2222 13.084C56.7182 13.084 56.2662 12.956 55.8662 12.7C55.4742 12.444 55.1662 12.084 54.9422 11.62C54.7262 11.156 54.6182 10.624 54.6182 10.024C54.6182 9.416 54.7262 8.884 54.9422 8.428C55.1662 7.972 55.4742 7.62 55.8662 7.372C56.2582 7.124 56.7102 7 57.2222 7C57.6622 7 58.0462 7.096 58.3742 7.288C58.7102 7.472 58.9662 7.736 59.1422 8.08V5.032C59.1422 4.864 59.1942 4.732 59.2982 4.636C59.4102 4.532 59.5582 4.48 59.7422 4.48ZM57.5102 12.124C58.0302 12.124 58.4342 11.944 58.7222 11.584C59.0102 11.224 59.1542 10.712 59.1542 10.048C59.1542 9.384 59.0102 8.872 58.7222 8.512C58.4422 8.152 58.0382 7.972 57.5102 7.972C56.9822 7.972 56.5702 8.152 56.2742 8.512C55.9862 8.864 55.8422 9.368 55.8422 10.024C55.8422 10.68 55.9902 11.196 56.2862 11.572C56.5822 11.94 56.9902 12.124 57.5102 12.124Z" fill="white"/>
</svg>
