<svg width="22" height="22" viewBox="0 0 22 22" fill="none" xmlns="http://www.w3.org/2000/svg">
<path d="M9.06868 18.1189C4.07327 18.1189 0.00921631 14.0549 0.00921631 9.05947C0.00921631 4.06405 4.07327 0 9.06868 0C14.0641 0 18.1281 4.06405 18.1281 9.05947C18.1281 14.0549 14.0641 18.1189 9.06868 18.1189ZM9.06868 1.71744C5.02026 1.71744 1.72665 5.01105 1.72665 9.05947C1.72665 13.1079 5.02026 16.4015 9.06868 16.4015C13.1171 16.4015 16.4107 13.1079 16.4107 9.05947C16.4107 5.01105 13.1171 1.71744 9.06868 1.71744ZM21.7409 21.7485C22.0762 21.4131 22.0762 20.8694 21.7409 20.534L17.8981 16.6913C17.5628 16.3559 17.019 16.3559 16.6837 16.6913C16.3484 17.0267 16.3484 17.5704 16.6837 17.9057L20.5265 21.7485C20.6941 21.9161 20.9139 22 21.1337 22C21.3535 22 21.5732 21.9161 21.7409 21.7485Z" fill="#EB4C60"/>
</svg>
