<svg width="196" height="36" viewBox="0 0 196 36" fill="none" xmlns="http://www.w3.org/2000/svg">
<path d="M20.032 3.268V27H15.272V16.902H5.106V27H0.346V3.268H5.106V13.026H15.272V3.268H20.032ZM32.8011 27.306C30.9878 27.306 29.3558 26.9093 27.9051 26.116C26.4544 25.3 25.3098 24.1553 24.4711 22.682C23.6551 21.2087 23.2471 19.5087 23.2471 17.582C23.2471 15.6553 23.6664 13.9553 24.5051 12.482C25.3664 11.0087 26.5338 9.87533 28.0071 9.082C29.4804 8.266 31.1238 7.858 32.9371 7.858C34.7504 7.858 36.3938 8.266 37.8671 9.082C39.3404 9.87533 40.4964 11.0087 41.3351 12.482C42.1964 13.9553 42.6271 15.6553 42.6271 17.582C42.6271 19.5087 42.1851 21.2087 41.3011 22.682C40.4398 24.1553 39.2611 25.3 37.7651 26.116C36.2918 26.9093 34.6371 27.306 32.8011 27.306ZM32.8011 23.158C33.6624 23.158 34.4671 22.954 35.2151 22.546C35.9858 22.1153 36.5978 21.4807 37.0511 20.642C37.5044 19.8033 37.7311 18.7833 37.7311 17.582C37.7311 15.7913 37.2551 14.42 36.3031 13.468C35.3738 12.4933 34.2291 12.006 32.8691 12.006C31.5091 12.006 30.3644 12.4933 29.4351 13.468C28.5284 14.42 28.0751 15.7913 28.0751 17.582C28.0751 19.3727 28.5171 20.7553 29.4011 21.73C30.3078 22.682 31.4411 23.158 32.8011 23.158ZM69.2307 7.892C71.5427 7.892 73.4014 8.606 74.8067 10.034C76.2347 11.4393 76.9487 13.4113 76.9487 15.95V27H72.1887V16.596C72.1887 15.1227 71.8147 14.0007 71.0667 13.23C70.3187 12.4367 69.2987 12.04 68.0067 12.04C66.7147 12.04 65.6834 12.4367 64.9127 13.23C64.1647 14.0007 63.7907 15.1227 63.7907 16.596V27H59.0307V16.596C59.0307 15.1227 58.6567 14.0007 57.9087 13.23C57.1607 12.4367 56.1407 12.04 54.8487 12.04C53.5341 12.04 52.4914 12.4367 51.7207 13.23C50.9727 14.0007 50.5987 15.1227 50.5987 16.596V27H45.8387V8.164H50.5987V10.442C51.2107 9.64867 51.9927 9.02533 52.9447 8.572C53.9194 8.11867 54.9847 7.892 56.1407 7.892C57.6141 7.892 58.9287 8.20933 60.0847 8.844C61.2407 9.456 62.1361 10.34 62.7707 11.496C63.3827 10.408 64.2667 9.53533 65.4227 8.878C66.6014 8.22067 67.8707 7.892 69.2307 7.892ZM98.6957 17.174C98.6957 17.854 98.6504 18.466 98.5597 19.01H84.7897C84.903 20.37 85.379 21.4353 86.2177 22.206C87.0564 22.9767 88.0877 23.362 89.3117 23.362C91.0797 23.362 92.3377 22.6027 93.0857 21.084H98.2197C97.6757 22.8973 96.633 24.3933 95.0917 25.572C93.5504 26.728 91.6577 27.306 89.4137 27.306C87.6004 27.306 85.9684 26.9093 84.5177 26.116C83.0897 25.3 81.9677 24.1553 81.1517 22.682C80.3584 21.2087 79.9617 19.5087 79.9617 17.582C79.9617 15.6327 80.3584 13.9213 81.1517 12.448C81.945 10.9747 83.0557 9.84133 84.4837 9.048C85.9117 8.25467 87.555 7.858 89.4137 7.858C91.2044 7.858 92.8024 8.24333 94.2077 9.014C95.6357 9.78467 96.735 10.884 97.5057 12.312C98.299 13.7173 98.6957 15.338 98.6957 17.174ZM93.7657 15.814C93.743 14.59 93.301 13.6153 92.4397 12.89C91.5784 12.142 90.5244 11.768 89.2777 11.768C88.099 11.768 87.1017 12.1307 86.2857 12.856C85.4924 13.5587 85.005 14.5447 84.8237 15.814H93.7657ZM106.65 10.884C107.262 10.0227 108.101 9.30867 109.166 8.742C110.254 8.15267 111.489 7.858 112.872 7.858C114.481 7.858 115.932 8.25467 117.224 9.048C118.539 9.84133 119.57 10.9747 120.318 12.448C121.089 13.8987 121.474 15.5873 121.474 17.514C121.474 19.4407 121.089 21.152 120.318 22.648C119.57 24.1213 118.539 25.266 117.224 26.082C115.932 26.898 114.481 27.306 112.872 27.306C111.489 27.306 110.265 27.0227 109.2 26.456C108.157 25.8893 107.307 25.1753 106.65 24.314V35.976H101.89V8.164H106.65V10.884ZM116.612 17.514C116.612 16.3807 116.374 15.406 115.898 14.59C115.445 13.7513 114.833 13.1167 114.062 12.686C113.314 12.2553 112.498 12.04 111.614 12.04C110.753 12.04 109.937 12.2667 109.166 12.72C108.418 13.1507 107.806 13.7853 107.33 14.624C106.877 15.4627 106.65 16.4487 106.65 17.582C106.65 18.7153 106.877 19.7013 107.33 20.54C107.806 21.3787 108.418 22.0247 109.166 22.478C109.937 22.9087 110.753 23.124 111.614 23.124C112.498 23.124 113.314 22.8973 114.062 22.444C114.833 21.9907 115.445 21.3447 115.898 20.506C116.374 19.6673 116.612 18.67 116.612 17.514ZM142.163 17.174C142.163 17.854 142.118 18.466 142.027 19.01H128.257C128.37 20.37 128.846 21.4353 129.685 22.206C130.524 22.9767 131.555 23.362 132.779 23.362C134.547 23.362 135.805 22.6027 136.553 21.084H141.687C141.143 22.8973 140.1 24.3933 138.559 25.572C137.018 26.728 135.125 27.306 132.881 27.306C131.068 27.306 129.436 26.9093 127.985 26.116C126.557 25.3 125.435 24.1553 124.619 22.682C123.826 21.2087 123.429 19.5087 123.429 17.582C123.429 15.6327 123.826 13.9213 124.619 12.448C125.412 10.9747 126.523 9.84133 127.951 9.048C129.379 8.25467 131.022 7.858 132.881 7.858C134.672 7.858 136.27 8.24333 137.675 9.014C139.103 9.78467 140.202 10.884 140.973 12.312C141.766 13.7173 142.163 15.338 142.163 17.174ZM137.233 15.814C137.21 14.59 136.768 13.6153 135.907 12.89C135.046 12.142 133.992 11.768 132.745 11.768C131.566 11.768 130.569 12.1307 129.753 12.856C128.96 13.5587 128.472 14.5447 128.291 15.814H137.233ZM144.133 17.514C144.133 15.61 144.507 13.9213 145.255 12.448C146.026 10.9747 147.069 9.84133 148.383 9.048C149.698 8.25467 151.16 7.858 152.769 7.858C153.993 7.858 155.161 8.13 156.271 8.674C157.382 9.19533 158.266 9.898 158.923 10.782V1.84H163.751V27H158.923V24.212C158.334 25.1413 157.507 25.8893 156.441 26.456C155.376 27.0227 154.141 27.306 152.735 27.306C151.149 27.306 149.698 26.898 148.383 26.082C147.069 25.266 146.026 24.1213 145.255 22.648C144.507 21.152 144.133 19.4407 144.133 17.514ZM158.957 17.582C158.957 16.426 158.731 15.44 158.277 14.624C157.824 13.7853 157.212 13.1507 156.441 12.72C155.671 12.2667 154.843 12.04 153.959 12.04C153.075 12.04 152.259 12.2553 151.511 12.686C150.763 13.1167 150.151 13.7513 149.675 14.59C149.222 15.406 148.995 16.3807 148.995 17.514C148.995 18.6473 149.222 19.6447 149.675 20.506C150.151 21.3447 150.763 21.9907 151.511 22.444C152.282 22.8973 153.098 23.124 153.959 23.124C154.843 23.124 155.671 22.9087 156.441 22.478C157.212 22.0247 157.824 21.39 158.277 20.574C158.731 19.7353 158.957 18.738 158.957 17.582ZM170.534 5.92C169.696 5.92 168.993 5.65933 168.426 5.138C167.882 4.594 167.61 3.92533 167.61 3.132C167.61 2.33867 167.882 1.68133 168.426 1.16C168.993 0.615999 169.696 0.343999 170.534 0.343999C171.373 0.343999 172.064 0.615999 172.608 1.16C173.175 1.68133 173.458 2.33867 173.458 3.132C173.458 3.92533 173.175 4.594 172.608 5.138C172.064 5.65933 171.373 5.92 170.534 5.92ZM172.88 8.164V27H168.12V8.164H172.88ZM176.079 17.514C176.079 15.61 176.453 13.9213 177.201 12.448C177.972 10.9747 179.003 9.84133 180.295 9.048C181.61 8.25467 183.072 7.858 184.681 7.858C186.087 7.858 187.311 8.14133 188.353 8.708C189.419 9.27467 190.269 9.98867 190.903 10.85V8.164H195.697V27H190.903V24.246C190.291 25.13 189.441 25.8667 188.353 26.456C187.288 27.0227 186.053 27.306 184.647 27.306C183.061 27.306 181.61 26.898 180.295 26.082C179.003 25.266 177.972 24.1213 177.201 22.648C176.453 21.152 176.079 19.4407 176.079 17.514ZM190.903 17.582C190.903 16.426 190.677 15.44 190.223 14.624C189.77 13.7853 189.158 13.1507 188.387 12.72C187.617 12.2667 186.789 12.04 185.905 12.04C185.021 12.04 184.205 12.2553 183.457 12.686C182.709 13.1167 182.097 13.7513 181.621 14.59C181.168 15.406 180.941 16.3807 180.941 17.514C180.941 18.6473 181.168 19.6447 181.621 20.506C182.097 21.3447 182.709 21.9907 183.457 22.444C184.228 22.8973 185.044 23.124 185.905 23.124C186.789 23.124 187.617 22.9087 188.387 22.478C189.158 22.0247 189.77 21.39 190.223 20.574C190.677 19.7353 190.903 18.738 190.903 17.582Z" fill="white"/>
</svg>
