<svg width="123" height="32" viewBox="0 0 123 32" fill="none" xmlns="http://www.w3.org/2000/svg">
<path d="M3.92857 7H0L7.5 1L15 7H11.0714L7.5 4.14286L6.78571 4.71429L3.92857 7Z" fill="#EB4C60"/>
<path d="M13.608 8.342V23H10.668V16.763H4.389V23H1.449V8.342H4.389V14.369H10.668V8.342H13.608ZM21.3877 23.189C20.2677 23.189 19.2597 22.944 18.3637 22.454C17.4677 21.95 16.7607 21.243 16.2427 20.333C15.7387 19.423 15.4867 18.373 15.4867 17.183C15.4867 15.993 15.7457 14.943 16.2637 14.033C16.7957 13.123 17.5167 12.423 18.4267 11.933C19.3367 11.429 20.3517 11.177 21.4717 11.177C22.5917 11.177 23.6067 11.429 24.5167 11.933C25.4267 12.423 26.1407 13.123 26.6587 14.033C27.1907 14.943 27.4567 15.993 27.4567 17.183C27.4567 18.373 27.1837 19.423 26.6377 20.333C26.1057 21.243 25.3777 21.95 24.4537 22.454C23.5437 22.944 22.5217 23.189 21.3877 23.189ZM21.3877 20.627C21.9197 20.627 22.4167 20.501 22.8787 20.249C23.3547 19.983 23.7327 19.591 24.0127 19.073C24.2927 18.555 24.4327 17.925 24.4327 17.183C24.4327 16.077 24.1387 15.23 23.5507 14.642C22.9767 14.04 22.2697 13.739 21.4297 13.739C20.5897 13.739 19.8827 14.04 19.3087 14.642C18.7487 15.23 18.4687 16.077 18.4687 17.183C18.4687 18.289 18.7417 19.143 19.2877 19.745C19.8477 20.333 20.5477 20.627 21.3877 20.627ZM43.7813 11.198C45.2093 11.198 46.3573 11.639 47.2253 12.521C48.1073 13.389 48.5483 14.607 48.5483 16.175V23H45.6083V16.574C45.6083 15.664 45.3773 14.971 44.9153 14.495C44.4533 14.005 43.8233 13.76 43.0253 13.76C42.2273 13.76 41.5903 14.005 41.1143 14.495C40.6523 14.971 40.4213 15.664 40.4213 16.574V23H37.4813V16.574C37.4813 15.664 37.2503 14.971 36.7883 14.495C36.3263 14.005 35.6963 13.76 34.8983 13.76C34.0863 13.76 33.4423 14.005 32.9663 14.495C32.5043 14.971 32.2733 15.664 32.2733 16.574V23H29.3333V11.366H32.2733V12.773C32.6513 12.283 33.1343 11.898 33.7223 11.618C34.3243 11.338 34.9823 11.198 35.6963 11.198C36.6063 11.198 37.4183 11.394 38.1323 11.786C38.8463 12.164 39.3993 12.71 39.7913 13.424C40.1693 12.752 40.7153 12.213 41.4293 11.807C42.1573 11.401 42.9413 11.198 43.7813 11.198ZM61.8732 16.931C61.8732 17.351 61.8452 17.729 61.7892 18.065H53.2842C53.3542 18.905 53.6482 19.563 54.1662 20.039C54.6842 20.515 55.3212 20.753 56.0772 20.753C57.1692 20.753 57.9462 20.284 58.4082 19.346H61.5792C61.2432 20.466 60.5992 21.39 59.6472 22.118C58.6952 22.832 57.5262 23.189 56.1402 23.189C55.0202 23.189 54.0122 22.944 53.1162 22.454C52.2342 21.95 51.5412 21.243 51.0372 20.333C50.5472 19.423 50.3022 18.373 50.3022 17.183C50.3022 15.979 50.5472 14.922 51.0372 14.012C51.5272 13.102 52.2132 12.402 53.0952 11.912C53.9772 11.422 54.9922 11.177 56.1402 11.177C57.2462 11.177 58.2332 11.415 59.1012 11.891C59.9832 12.367 60.6622 13.046 61.1382 13.928C61.6282 14.796 61.8732 15.797 61.8732 16.931ZM58.8282 16.091C58.8142 15.335 58.5412 14.733 58.0092 14.285C57.4772 13.823 56.8262 13.592 56.0562 13.592C55.3282 13.592 54.7122 13.816 54.2082 14.264C53.7182 14.698 53.4172 15.307 53.3052 16.091H58.8282ZM66.6792 13.046C67.0572 12.514 67.5752 12.073 68.2332 11.723C68.9052 11.359 69.6682 11.177 70.5222 11.177C71.5162 11.177 72.4122 11.422 73.2102 11.912C74.0222 12.402 74.6592 13.102 75.1212 14.012C75.5972 14.908 75.8352 15.951 75.8352 17.141C75.8352 18.331 75.5972 19.388 75.1212 20.312C74.6592 21.222 74.0222 21.929 73.2102 22.433C72.4122 22.937 71.5162 23.189 70.5222 23.189C69.6682 23.189 68.9122 23.014 68.2542 22.664C67.6102 22.314 67.0852 21.873 66.6792 21.341V28.544H63.7392V11.366H66.6792V13.046ZM72.8322 17.141C72.8322 16.441 72.6852 15.839 72.3912 15.335C72.1112 14.817 71.7332 14.425 71.2572 14.159C70.7952 13.893 70.2912 13.76 69.7452 13.76C69.2132 13.76 68.7092 13.9 68.2332 14.18C67.7712 14.446 67.3932 14.838 67.0992 15.356C66.8192 15.874 66.6792 16.483 66.6792 17.183C66.6792 17.883 66.8192 18.492 67.0992 19.01C67.3932 19.528 67.7712 19.927 68.2332 20.207C68.7092 20.473 69.2132 20.606 69.7452 20.606C70.2912 20.606 70.7952 20.466 71.2572 20.186C71.7332 19.906 72.1112 19.507 72.3912 18.989C72.6852 18.471 72.8322 17.855 72.8322 17.141ZM88.5066 16.931C88.5066 17.351 88.4786 17.729 88.4226 18.065H79.9176C79.9876 18.905 80.2816 19.563 80.7996 20.039C81.3176 20.515 81.9546 20.753 82.7106 20.753C83.8026 20.753 84.5796 20.284 85.0416 19.346H88.2126C87.8766 20.466 87.2326 21.39 86.2806 22.118C85.3286 22.832 84.1596 23.189 82.7736 23.189C81.6536 23.189 80.6456 22.944 79.7496 22.454C78.8676 21.95 78.1746 21.243 77.6706 20.333C77.1806 19.423 76.9356 18.373 76.9356 17.183C76.9356 15.979 77.1806 14.922 77.6706 14.012C78.1606 13.102 78.8466 12.402 79.7286 11.912C80.6106 11.422 81.6256 11.177 82.7736 11.177C83.8796 11.177 84.8666 11.415 85.7346 11.891C86.6166 12.367 87.2956 13.046 87.7716 13.928C88.2616 14.796 88.5066 15.797 88.5066 16.931ZM85.4616 16.091C85.4476 15.335 85.1746 14.733 84.6426 14.285C84.1106 13.823 83.4596 13.592 82.6896 13.592C81.9616 13.592 81.3456 13.816 80.8416 14.264C80.3516 14.698 80.0506 15.307 79.9386 16.091H85.4616ZM89.6165 17.141C89.6165 15.965 89.8475 14.922 90.3095 14.012C90.7855 13.102 91.4295 12.402 92.2415 11.912C93.0535 11.422 93.9565 11.177 94.9505 11.177C95.7065 11.177 96.4275 11.345 97.1135 11.681C97.7995 12.003 98.3455 12.437 98.7515 12.983V7.46H101.734V23H98.7515V21.278C98.3875 21.852 97.8765 22.314 97.2185 22.664C96.5605 23.014 95.7975 23.189 94.9295 23.189C93.9495 23.189 93.0535 22.937 92.2415 22.433C91.4295 21.929 90.7855 21.222 90.3095 20.312C89.8475 19.388 89.6165 18.331 89.6165 17.141ZM98.7725 17.183C98.7725 16.469 98.6325 15.86 98.3525 15.356C98.0725 14.838 97.6945 14.446 97.2185 14.18C96.7425 13.9 96.2315 13.76 95.6855 13.76C95.1395 13.76 94.6355 13.893 94.1735 14.159C93.7115 14.425 93.3335 14.817 93.0395 15.335C92.7595 15.839 92.6195 16.441 92.6195 17.141C92.6195 17.841 92.7595 18.457 93.0395 18.989C93.3335 19.507 93.7115 19.906 94.1735 20.186C94.6495 20.466 95.1535 20.606 95.6855 20.606C96.2315 20.606 96.7425 20.473 97.2185 20.207C97.6945 19.927 98.0725 19.535 98.3525 19.031C98.6325 18.513 98.7725 17.897 98.7725 17.183ZM105.816 9.98C105.298 9.98 104.864 9.819 104.514 9.497C104.178 9.161 104.01 8.748 104.01 8.258C104.01 7.768 104.178 7.362 104.514 7.04C104.864 6.704 105.298 6.536 105.816 6.536C106.334 6.536 106.761 6.704 107.097 7.04C107.447 7.362 107.622 7.768 107.622 8.258C107.622 8.748 107.447 9.161 107.097 9.497C106.761 9.819 106.334 9.98 105.816 9.98ZM107.265 11.366V23H104.325V11.366H107.265ZM109.134 17.141C109.134 15.965 109.365 14.922 109.827 14.012C110.303 13.102 110.94 12.402 111.738 11.912C112.55 11.422 113.453 11.177 114.447 11.177C115.315 11.177 116.071 11.352 116.715 11.702C117.373 12.052 117.898 12.493 118.29 13.025V11.366H121.251V23H118.29V21.299C117.912 21.845 117.387 22.3 116.715 22.664C116.057 23.014 115.294 23.189 114.426 23.189C113.446 23.189 112.55 22.937 111.738 22.433C110.94 21.929 110.303 21.222 109.827 20.312C109.365 19.388 109.134 18.331 109.134 17.141ZM118.29 17.183C118.29 16.469 118.15 15.86 117.87 15.356C117.59 14.838 117.212 14.446 116.736 14.18C116.26 13.9 115.749 13.76 115.203 13.76C114.657 13.76 114.153 13.893 113.691 14.159C113.229 14.425 112.851 14.817 112.557 15.335C112.277 15.839 112.137 16.441 112.137 17.141C112.137 17.841 112.277 18.457 112.557 18.989C112.851 19.507 113.229 19.906 113.691 20.186C114.167 20.466 114.671 20.606 115.203 20.606C115.749 20.606 116.26 20.473 116.736 20.207C117.212 19.927 117.59 19.535 117.87 19.031C118.15 18.513 118.29 17.897 118.29 17.183Z" fill="#EB4C60"/>
</svg>
