<svg width="201" height="51" viewBox="0 0 201 51" fill="none" xmlns="http://www.w3.org/2000/svg">
<path d="M6.76191 12H1L12 1L23 12H17.2381L12 6.76191L10.9524 7.80952L6.76191 12Z" fill="white"/>
<path d="M22.032 13.268V37H17.272V26.902H7.106V37H2.346V13.268H7.106V23.026H17.272V13.268H22.032ZM34.8011 37.306C32.9878 37.306 31.3558 36.9093 29.9051 36.116C28.4544 35.3 27.3098 34.1553 26.4711 32.682C25.6551 31.2087 25.2471 29.5087 25.2471 27.582C25.2471 25.6553 25.6664 23.9553 26.5051 22.482C27.3664 21.0087 28.5338 19.8753 30.0071 19.082C31.4804 18.266 33.1238 17.858 34.9371 17.858C36.7504 17.858 38.3938 18.266 39.8671 19.082C41.3404 19.8753 42.4964 21.0087 43.3351 22.482C44.1964 23.9553 44.6271 25.6553 44.6271 27.582C44.6271 29.5087 44.1851 31.2087 43.3011 32.682C42.4398 34.1553 41.2611 35.3 39.7651 36.116C38.2918 36.9093 36.6371 37.306 34.8011 37.306ZM34.8011 33.158C35.6624 33.158 36.4671 32.954 37.2151 32.546C37.9858 32.1153 38.5978 31.4807 39.0511 30.642C39.5044 29.8033 39.7311 28.7833 39.7311 27.582C39.7311 25.7913 39.2551 24.42 38.3031 23.468C37.3738 22.4933 36.2291 22.006 34.8691 22.006C33.5091 22.006 32.3644 22.4933 31.4351 23.468C30.5284 24.42 30.0751 25.7913 30.0751 27.582C30.0751 29.3727 30.5171 30.7553 31.4011 31.73C32.3078 32.682 33.4411 33.158 34.8011 33.158ZM71.2307 17.892C73.5427 17.892 75.4014 18.606 76.8067 20.034C78.2347 21.4393 78.9487 23.4113 78.9487 25.95V37H74.1887V26.596C74.1887 25.1227 73.8147 24.0007 73.0667 23.23C72.3187 22.4367 71.2987 22.04 70.0067 22.04C68.7147 22.04 67.6834 22.4367 66.9127 23.23C66.1647 24.0007 65.7907 25.1227 65.7907 26.596V37H61.0307V26.596C61.0307 25.1227 60.6567 24.0007 59.9087 23.23C59.1607 22.4367 58.1407 22.04 56.8487 22.04C55.5341 22.04 54.4914 22.4367 53.7207 23.23C52.9727 24.0007 52.5987 25.1227 52.5987 26.596V37H47.8387V18.164H52.5987V20.442C53.2107 19.6487 53.9927 19.0253 54.9447 18.572C55.9194 18.1187 56.9847 17.892 58.1407 17.892C59.6141 17.892 60.9287 18.2093 62.0847 18.844C63.2407 19.456 64.1361 20.34 64.7707 21.496C65.3827 20.408 66.2667 19.5353 67.4227 18.878C68.6014 18.2207 69.8707 17.892 71.2307 17.892ZM100.696 27.174C100.696 27.854 100.65 28.466 100.56 29.01H86.7897C86.903 30.37 87.379 31.4353 88.2177 32.206C89.0564 32.9767 90.0877 33.362 91.3117 33.362C93.0797 33.362 94.3377 32.6027 95.0857 31.084H100.22C99.6757 32.8973 98.633 34.3933 97.0917 35.572C95.5504 36.728 93.6577 37.306 91.4137 37.306C89.6004 37.306 87.9684 36.9093 86.5177 36.116C85.0897 35.3 83.9677 34.1553 83.1517 32.682C82.3584 31.2087 81.9617 29.5087 81.9617 27.582C81.9617 25.6327 82.3584 23.9213 83.1517 22.448C83.945 20.9747 85.0557 19.8413 86.4837 19.048C87.9117 18.2547 89.555 17.858 91.4137 17.858C93.2044 17.858 94.8024 18.2433 96.2077 19.014C97.6357 19.7847 98.735 20.884 99.5057 22.312C100.299 23.7173 100.696 25.338 100.696 27.174ZM95.7657 25.814C95.743 24.59 95.301 23.6153 94.4397 22.89C93.5784 22.142 92.5244 21.768 91.2777 21.768C90.099 21.768 89.1017 22.1307 88.2857 22.856C87.4924 23.5587 87.005 24.5447 86.8237 25.814H95.7657ZM108.65 20.884C109.262 20.0227 110.101 19.3087 111.166 18.742C112.254 18.1527 113.489 17.858 114.872 17.858C116.481 17.858 117.932 18.2547 119.224 19.048C120.539 19.8413 121.57 20.9747 122.318 22.448C123.089 23.8987 123.474 25.5873 123.474 27.514C123.474 29.4407 123.089 31.152 122.318 32.648C121.57 34.1213 120.539 35.266 119.224 36.082C117.932 36.898 116.481 37.306 114.872 37.306C113.489 37.306 112.265 37.0227 111.2 36.456C110.157 35.8893 109.307 35.1753 108.65 34.314V45.976H103.89V18.164H108.65V20.884ZM118.612 27.514C118.612 26.3807 118.374 25.406 117.898 24.59C117.445 23.7513 116.833 23.1167 116.062 22.686C115.314 22.2553 114.498 22.04 113.614 22.04C112.753 22.04 111.937 22.2667 111.166 22.72C110.418 23.1507 109.806 23.7853 109.33 24.624C108.877 25.4627 108.65 26.4487 108.65 27.582C108.65 28.7153 108.877 29.7013 109.33 30.54C109.806 31.3787 110.418 32.0247 111.166 32.478C111.937 32.9087 112.753 33.124 113.614 33.124C114.498 33.124 115.314 32.8973 116.062 32.444C116.833 31.9907 117.445 31.3447 117.898 30.506C118.374 29.6673 118.612 28.67 118.612 27.514ZM144.163 27.174C144.163 27.854 144.118 28.466 144.027 29.01H130.257C130.37 30.37 130.846 31.4353 131.685 32.206C132.524 32.9767 133.555 33.362 134.779 33.362C136.547 33.362 137.805 32.6027 138.553 31.084H143.687C143.143 32.8973 142.1 34.3933 140.559 35.572C139.018 36.728 137.125 37.306 134.881 37.306C133.068 37.306 131.436 36.9093 129.985 36.116C128.557 35.3 127.435 34.1553 126.619 32.682C125.826 31.2087 125.429 29.5087 125.429 27.582C125.429 25.6327 125.826 23.9213 126.619 22.448C127.412 20.9747 128.523 19.8413 129.951 19.048C131.379 18.2547 133.022 17.858 134.881 17.858C136.672 17.858 138.27 18.2433 139.675 19.014C141.103 19.7847 142.202 20.884 142.973 22.312C143.766 23.7173 144.163 25.338 144.163 27.174ZM139.233 25.814C139.21 24.59 138.768 23.6153 137.907 22.89C137.046 22.142 135.992 21.768 134.745 21.768C133.566 21.768 132.569 22.1307 131.753 22.856C130.96 23.5587 130.472 24.5447 130.291 25.814H139.233ZM146.133 27.514C146.133 25.61 146.507 23.9213 147.255 22.448C148.026 20.9747 149.069 19.8413 150.383 19.048C151.698 18.2547 153.16 17.858 154.769 17.858C155.993 17.858 157.161 18.13 158.271 18.674C159.382 19.1953 160.266 19.898 160.923 20.782V11.84H165.751V37H160.923V34.212C160.334 35.1413 159.507 35.8893 158.441 36.456C157.376 37.0227 156.141 37.306 154.735 37.306C153.149 37.306 151.698 36.898 150.383 36.082C149.069 35.266 148.026 34.1213 147.255 32.648C146.507 31.152 146.133 29.4407 146.133 27.514ZM160.957 27.582C160.957 26.426 160.731 25.44 160.277 24.624C159.824 23.7853 159.212 23.1507 158.441 22.72C157.671 22.2667 156.843 22.04 155.959 22.04C155.075 22.04 154.259 22.2553 153.511 22.686C152.763 23.1167 152.151 23.7513 151.675 24.59C151.222 25.406 150.995 26.3807 150.995 27.514C150.995 28.6473 151.222 29.6447 151.675 30.506C152.151 31.3447 152.763 31.9907 153.511 32.444C154.282 32.8973 155.098 33.124 155.959 33.124C156.843 33.124 157.671 32.9087 158.441 32.478C159.212 32.0247 159.824 31.39 160.277 30.574C160.731 29.7353 160.957 28.738 160.957 27.582ZM172.534 15.92C171.696 15.92 170.993 15.6593 170.426 15.138C169.882 14.594 169.61 13.9253 169.61 13.132C169.61 12.3387 169.882 11.6813 170.426 11.16C170.993 10.616 171.696 10.344 172.534 10.344C173.373 10.344 174.064 10.616 174.608 11.16C175.175 11.6813 175.458 12.3387 175.458 13.132C175.458 13.9253 175.175 14.594 174.608 15.138C174.064 15.6593 173.373 15.92 172.534 15.92ZM174.88 18.164V37H170.12V18.164H174.88ZM178.079 27.514C178.079 25.61 178.453 23.9213 179.201 22.448C179.972 20.9747 181.003 19.8413 182.295 19.048C183.61 18.2547 185.072 17.858 186.681 17.858C188.087 17.858 189.311 18.1413 190.353 18.708C191.419 19.2747 192.269 19.9887 192.903 20.85V18.164H197.697V37H192.903V34.246C192.291 35.13 191.441 35.8667 190.353 36.456C189.288 37.0227 188.053 37.306 186.647 37.306C185.061 37.306 183.61 36.898 182.295 36.082C181.003 35.266 179.972 34.1213 179.201 32.648C178.453 31.152 178.079 29.4407 178.079 27.514ZM192.903 27.582C192.903 26.426 192.677 25.44 192.223 24.624C191.77 23.7853 191.158 23.1507 190.387 22.72C189.617 22.2667 188.789 22.04 187.905 22.04C187.021 22.04 186.205 22.2553 185.457 22.686C184.709 23.1167 184.097 23.7513 183.621 24.59C183.168 25.406 182.941 26.3807 182.941 27.514C182.941 28.6473 183.168 29.6447 183.621 30.506C184.097 31.3447 184.709 31.9907 185.457 32.444C186.228 32.8973 187.044 33.124 187.905 33.124C188.789 33.124 189.617 32.9087 190.387 32.478C191.158 32.0247 191.77 31.39 192.223 30.574C192.677 29.7353 192.903 28.738 192.903 27.582Z" fill="white"/>
</svg>
